<?xml version="1.0" encoding="UTF-8" standalone="no"?>
<!-- Created with Inkscape (http://www.inkscape.org/) -->

<svg
   xmlns:dc="http://purl.org/dc/elements/1.1/"
   xmlns:cc="http://creativecommons.org/ns#"
   xmlns:rdf="http://www.w3.org/1999/02/22-rdf-syntax-ns#"
   xmlns:svg="http://www.w3.org/2000/svg"
   xmlns="http://www.w3.org/2000/svg"
   xmlns:sodipodi="http://sodipodi.sourceforge.net/DTD/sodipodi-0.dtd"
   xmlns:inkscape="http://www.inkscape.org/namespaces/inkscape"
   width="210mm"
   height="297mm"
   viewBox="0 0 744.09448819 1052.3622047"
   id="svg2"
   version="1.1"
   inkscape:version="0.91 r13725"
   sodipodi:docname="icon2.svg">
  <defs
     id="defs4" />
  <sodipodi:namedview
     id="base"
     pagecolor="#ffffff"
     bordercolor="#666666"
     borderopacity="1.0"
     inkscape:pageopacity="0.0"
     inkscape:pageshadow="2"
     inkscape:zoom="0.5"
     inkscape:cx="417.74647"
     inkscape:cy="625.68695"
     inkscape:document-units="px"
     inkscape:current-layer="layer1"
     showgrid="false"
     inkscape:window-width="1920"
     inkscape:window-height="1017"
     inkscape:window-x="-8"
     inkscape:window-y="-8"
     inkscape:window-maximized="1" />
  <metadata
     id="metadata7">
    <rdf:RDF>
      <cc:Work
         rdf:about="">
        <dc:format>image/svg+xml</dc:format>
        <dc:type
           rdf:resource="http://purl.org/dc/dcmitype/StillImage" />
        <dc:title></dc:title>
      </cc:Work>
    </rdf:RDF>
  </metadata>
  <g
     inkscape:label="Layer 1"
     inkscape:groupmode="layer"
     id="layer1">
    <g
       id="g4179"
       transform="translate(112.87542,261.74668)">
      <path
         id="path4137"
         d="m 486.006,355.446 18.117,-10.24 c -1.182,-6.695 -2.757,-13.391 -5.12,-20.086 l -20.874,0 -11.422,-20.086 10.634,-18.117 c -4.332,-5.12 -9.058,-10.24 -14.572,-14.572 l -18.117,10.24 -20.086,-11.815 0,-20.874 c -0.394,0 -0.788,-0.394 -1.575,-0.394 -5.908,-1.969 -12.209,-3.938 -18.511,-5.12 l -10.634,18.117 -23.237,0 -10.24,-18.117 c -6.695,1.182 -13.391,2.757 -20.086,5.12 l 0,20.874 -20.086,11.422 -18.117,-10.634 c -5.12,4.332 -10.24,9.058 -14.572,14.572 l 10.24,18.117 -11.815,20.086 -20.874,0 c -2.363,6.695 -4.332,12.997 -5.514,19.692 l 18.117,10.634 0,23.237 -18.117,10.24 c 1.182,6.695 2.757,13.391 5.12,20.086 l 20.874,0 11.422,20.086 -10.634,18.117 c 4.332,5.12 9.058,10.24 14.572,14.572 l 18.117,-10.24 20.086,11.815 0,20.874 c 0.394,0 0.788,0.394 1.575,0.394 5.908,1.969 12.209,3.938 18.511,5.12 l 10.634,-18.117 23.237,0 10.24,18.117 c 6.695,-1.182 13.391,-2.757 20.086,-5.12 l 0,-20.874 20.086,-11.422 18.117,10.634 c 5.12,-4.332 10.24,-9.058 14.572,-14.572 l -10.24,-18.117 11.815,-20.086 20.874,0 c 2.363,-6.695 4.332,-12.997 5.514,-19.692 l -18.117,-10.634 0,-23.237 z m -103.975,79.557 c -37.809,0 -68.923,-30.72 -68.923,-68.529 0,-37.809 30.72,-68.923 68.923,-68.923 37.809,0 68.923,30.72 68.923,68.529 0,37.809 -31.114,68.923 -68.923,68.923 z"
         style="fill:#415f6f"
         inkscape:connector-curvature="0" />
      <path
         id="path4139"
         d="m 274.905,240.049 c 0,-7.483 -0.394,-15.36 -1.575,-22.843 l -22.449,-4.726 -8.271,-24.418 15.36,-17.329 c -3.545,-6.695 -7.877,-12.997 -12.603,-18.905 l -22.055,7.483 -19.298,-16.935 4.726,-22.843 c -6.695,-3.938 -13.391,-7.483 -20.48,-10.24 l -14.966,17.329 -25.206,-5.12 -7.483,-22.055 c -7.483,0 -15.36,0.394 -22.843,1.575 l -4.726,22.449 -24.418,8.271 -17.329,-15.36 c -6.695,3.545 -12.997,7.877 -18.905,12.603 l 7.483,22.055 -16.935,19.298 -22.843,-4.726 c -3.938,6.695 -7.483,13.391 -10.24,20.48 l 17.329,15.36 -5.12,25.206 L 0,233.748 c 0,7.483 0.394,15.36 1.575,22.843 l 22.843,4.726 8.271,24.418 -15.36,17.329 c 3.545,6.695 7.877,12.997 12.603,18.905 l 22.055,-7.483 19.298,16.935 -5.12,22.843 c 6.695,3.938 13.391,7.483 20.48,10.24 l 15.36,-17.329 25.206,5.12 7.483,22.055 c 7.483,0 15.36,-0.394 22.843,-1.575 l 4.726,-22.449 24.418,-8.271 17.329,15.36 c 6.695,-3.545 12.997,-7.877 18.905,-12.603 l -7.483,-22.055 16.935,-19.298 22.843,4.726 c 3.938,-6.695 7.483,-13.391 10.24,-20.48 l -17.329,-15.36 5.12,-25.206 21.664,-7.09 0,0 z m -137.453,72.862 c -42.142,0 -76.406,-34.265 -76.406,-76.406 0,-42.141 34.265,-76.406 76.406,-76.406 42.141,0 76.406,34.265 76.406,76.406 0,42.141 -34.264,76.406 -76.406,76.406 z"
         style="fill:#26a6d1"
         inkscape:connector-curvature="0" />
      <path
         id="path4141"
         d="m 456.862,125.046 16.542,-6.695 c -0.394,-5.908 -1.182,-11.815 -2.363,-17.723 l -17.723,-2.363 -7.483,-18.511 11.028,-14.178 c -3.151,-5.12 -6.695,-9.846 -10.634,-14.178 l -16.542,6.695 -15.754,-12.209 2.363,-17.723 -1.182,-0.788 c -5.12,-2.363 -10.24,-4.726 -15.36,-6.302 l -11.028,14.178 -19.692,-2.757 -6.695,-16.935 c -5.908,0.394 -11.815,0.788 -17.723,1.969 l -2.363,17.723 -18.905,7.877 -14.178,-11.028 c -5.12,3.151 -9.846,6.695 -14.178,10.634 l 6.695,16.542 -12.209,15.754 -17.723,-2.363 c -2.757,5.12 -5.12,10.634 -7.089,16.542 l 14.178,11.028 -2.757,19.692 -16.542,6.695 c 0.394,5.908 1.182,11.815 2.363,17.723 l 17.723,2.363 7.483,18.511 -11.028,14.178 c 3.151,5.12 6.695,9.846 10.634,14.178 l 16.542,-6.695 15.754,12.209 -2.363,17.723 1.182,0.788 c 5.12,2.363 10.24,4.726 15.36,6.302 l 11.028,-14.178 19.692,2.757 6.695,16.542 c 5.908,-0.394 11.815,-0.788 17.723,-2.363 l 2.363,-17.723 18.511,-7.483 14.178,11.028 c 5.12,-3.151 9.846,-6.695 14.178,-10.634 l -6.695,-16.542 12.209,-15.754 17.723,2.363 c 2.757,-5.12 5.12,-10.634 7.089,-16.542 l -14.178,-11.028 c 0,0 3.151,-19.299 3.151,-19.299 z m -90.191,58.289 c -33.871,0 -61.046,-27.175 -61.046,-61.046 0,-33.871 27.175,-61.046 61.046,-61.046 33.871,0 61.046,27.175 61.046,61.046 0,33.871 -27.175,61.046 -61.046,61.046 z"
         style="fill:#638090"
         inkscape:connector-curvature="0" />
      <g
         id="g4143">
</g>
      <g
         id="g4145">
</g>
      <g
         id="g4147">
</g>
      <g
         id="g4149">
</g>
      <g
         id="g4151">
</g>
      <g
         id="g4153">
</g>
      <g
         id="g4155">
</g>
      <g
         id="g4157">
</g>
      <g
         id="g4159">
</g>
      <g
         id="g4161">
</g>
      <g
         id="g4163">
</g>
      <g
         id="g4165">
</g>
      <g
         id="g4167">
</g>
      <g
         id="g4169">
</g>
      <g
         id="g4171">
</g>
    </g>
    <path
       style="fill:#c83737;fill-opacity:1"
       d="m 246.67762,630.34384 c -1.07479,-2.82693 -2.52057,-7.3966 -3.21284,-10.15482 -1.60068,-6.37758 -5.74818,-8.54618 -19.41749,-10.15274 l -10.96727,-1.28898 -6.56146,8.28451 -6.56145,8.28452 -7.43246,-3.09224 c -11.67468,-4.8572 -12.49498,-6.40352 -9.99089,-18.83361 l 2.19182,-10.87999 -9.86133,-8.55496 -9.86133,-8.55496 -11.03714,3.79735 c -6.07042,2.08853 -11.55084,3.0466 -12.17871,2.12905 -0.62788,-0.91756 -3.30407,-5.08676 -5.94711,-9.26491 l -4.80551,-7.59665 7.6721,-7.85695 7.6721,-7.85694 -3.7277,-12.31177 c -4.03466,-13.32558 -5.77284,-14.92999 -18.44837,-17.02861 -7.27832,-1.20504 -8.52167,-2.18431 -9.59645,-7.55823 -2.77787,-13.88932 -2.04937,-15.30701 9.78223,-19.03659 10.8126,-3.40837 11.05623,-3.65576 13.13198,-13.33466 3.23149,-15.06791 2.7307,-17.19846 -5.86861,-24.96742 l -7.9836,-7.2127 4.34557,-8.94448 c 4.67328,-9.61902 6.52293,-10.26656 20.23252,-7.08319 7.39143,1.71629 7.84508,1.48558 16.47327,-8.37774 l 8.87252,-10.14263 -3.73137,-10.84542 -3.73137,-10.84542 8.96153,-6.16569 8.96152,-6.16569 8.44039,7.87311 8.44038,7.87311 12.79398,-4.15963 12.79398,-4.15963 2.43644,-11.79608 2.43644,-11.79608 11.02869,0.59329 11.02868,0.59329 3.33402,9.99252 3.33401,9.99253 12.95282,2.87705 12.95282,2.87705 7.67099,-8.64413 7.67099,-8.64412 9.75413,4.56859 9.75414,4.56859 -2.43455,11.6664 -2.43455,11.66639 9.97924,8.59592 9.97926,8.59592 10.8709,-3.69512 c 5.97897,-2.03232 11.24758,-3.2889 11.70801,-2.79239 0.46042,0.4965 3.19856,4.41427 6.08475,8.70614 l 5.24764,7.8034 -7.03397,8.21762 c -7.93925,9.27521 -8.11062,10.60909 -3.16865,24.6629 2.3681,6.73428 4.84134,10.321 7.41957,10.75994 2.12706,0.36213 7.27666,1.53359 11.44354,2.60325 7.56412,1.94175 7.57614,1.96193 7.57614,12.71608 l 0,10.77125 -9.05299,2.53468 c -11.08539,3.10372 -12.01778,4.24934 -14.80706,18.19349 l -2.22269,11.11168 8.64567,8.36191 8.64567,8.36192 -4.82873,9.50138 c -3.99291,7.85675 -5.59253,9.31826 -9.24136,8.44353 -18.25879,-4.37718 -18.34968,-4.35608 -27.29852,6.33232 l -8.38417,10.01399 3.77872,10.98304 3.77872,10.98305 -6.32643,4.15677 c -3.47955,2.28624 -7.50173,4.80774 -8.93819,5.60338 -1.57133,0.87033 -6.20828,-1.50052 -11.64028,-5.95164 l -9.02856,-7.39821 -10.58306,3.45232 c -14.1125,4.60366 -15.06417,5.57327 -16.6276,16.94076 -1.22043,8.87354 -1.91493,9.89319 -7.49921,11.01004 -11.82799,2.36559 -15.74632,1.50534 -17.80486,-3.90901 z m 35.83848,-62.41193 c 15.40337,-6.96081 30.88424,-22.63608 38.5301,-39.01397 4.69634,-10.05982 5.42365,-14.20205 5.41062,-30.81499 -0.0137,-17.46941 -0.59676,-20.3883 -6.49322,-32.50493 -7.80127,-16.0308 -22.24293,-30.23806 -38.46636,-37.84198 -9.98902,-4.68186 -14.14935,-5.41453 -30.74513,-5.41453 -17.38395,0 -20.4734,0.6066 -32.77898,6.43599 -16.23929,7.69287 -29.51274,20.66649 -37.1822,36.34231 -7.10934,14.53095 -8.90636,38.88145 -4.09163,55.44354 6.48174,22.2964 25.22925,41.91549 48.18866,50.42898 15.88873,5.89163 40.73873,4.57193 57.62814,-3.06042 z"
       id="path4201"
       inkscape:connector-curvature="0" />
    <path
       style="fill:#c83737;fill-opacity:1"
       d="m 357.95073,446.70316 c 0,-0.53258 2.39917,-3.56616 7.88581,-9.97102 2.24316,-2.61858 4.07848,-4.79817 4.07848,-4.84355 0,-0.14865 -8.59679,-12.84907 -9.99794,-14.77041 l -1.36736,-1.875 -1.05842,0.0496 c -2.12757,0.0997 -5.3749,1.03147 -15.72895,4.51329 l -5.80157,1.95092 -5.03181,-4.33758 c -2.76749,-2.38567 -7.20145,-6.20655 -9.85324,-8.49084 -2.65178,-2.28429 -4.84395,-4.25103 -4.87149,-4.37054 -0.0275,-0.11951 1.03026,-5.39817 2.35065,-11.73035 1.32039,-6.33219 2.385,-11.52901 2.36581,-11.5485 -0.0428,-0.0435 -17.33341,-8.14537 -18.64036,-8.73434 l -0.93826,-0.42282 -7.67802,8.63941 -7.67803,8.6394 -1.473,-0.32867 c -0.81016,-0.18077 -6.62101,-1.47154 -12.913,-2.86838 l -11.43999,-2.5397 -3.26944,-9.83545 c -1.79819,-5.40949 -3.34009,-9.91194 -3.42644,-10.00545 -0.13713,-0.14848 -8.86608,-0.68764 -17.83485,-1.1016 -3.3185,-0.15317 -3.17415,-0.22581 1.33928,-0.67397 3.63548,-0.36098 7.52964,-0.59362 12.50525,-0.74705 l 3.93382,-0.12131 2.01919,5.96054 c 1.11055,3.2783 2.79569,8.24967 3.74475,11.0475 l 1.72556,5.08697 1.875,0.39749 c 4.31621,0.91502 23.04593,4.69644 23.2619,4.69644 0.12914,0 3.56558,-3.85714 7.63654,-8.57143 4.07095,-4.71429 7.49622,-8.57143 7.61171,-8.57143 0.30044,0 4.72469,1.90283 7.58133,3.26066 3.15958,1.50182 12.17009,6.36996 12.61647,6.81633 0.0263,0.0263 -0.99808,5.09113 -2.27646,11.2551 -1.27839,6.16397 -2.32434,11.3078 -2.32434,11.43073 0,0.1773 16.65465,14.96527 18.79459,16.68806 l 0.53786,0.43301 1.62842,-0.54676 c 0.89562,-0.30072 5.802,-1.96209 10.90306,-3.69194 5.10106,-1.72986 9.33726,-3.14519 9.41377,-3.14519 0.0765,0 0.95487,1.06473 1.95187,2.36607 3.5152,4.58819 7.015,9.85095 9.45242,14.21392 0.9801,1.75438 1.10279,2.0733 0.91391,2.37574 -0.21526,0.3447 -11.01178,12.59778 -12.00986,13.63012 -0.28304,0.29276 -0.51462,0.46915 -0.51462,0.39199 z"
       id="path4203"
       inkscape:connector-curvature="0" />
    <path
       style="fill:#c83737;fill-opacity:1"
       d="m 168.24338,399.50061 c -0.0491,-0.12871 -2.96576,-8.73812 -2.96576,-8.75433 0,-0.0209 0.17141,-0.16034 0.9628,-0.78324 4.90412,-3.86005 9.75437,-7.17768 14.57618,-9.97027 1.42581,-0.82577 3.31999,-1.86439 3.35788,-1.8412 0.0407,0.0249 6.80182,6.02424 6.80834,6.04124 0.004,0.01 0.005,0.23693 0.003,0.50487 l -0.004,0.48715 -3.46279,-3.23006 -3.4628,-3.23006 -0.0412,0.0266 c -0.0226,0.0146 -3.15923,2.17173 -6.97019,4.79355 -3.81095,2.62181 -7.82039,5.37998 -8.90986,6.12926 -1.08946,0.74928 -1.98685,1.37135 -1.9942,1.38238 -0.008,0.0127 0.32856,1.01363 0.92081,2.73461 1.77342,5.15327 1.97306,5.73442 1.97306,5.74364 0,0.005 -0.17419,0.009 -0.38709,0.009 l -0.38709,0 -0.0166,-0.0434 z"
       id="path4205"
       inkscape:connector-curvature="0" />
    <path
       style="fill:#c83737;fill-opacity:1"
       d="m 198.85617,392.52515 c -1.14191,-1.06502 -3.37873,-3.15107 -4.97073,-4.63569 l -2.89453,-2.6993 0,-0.50099 0,-0.50098 0.18416,0.16611 c 0.10128,0.0914 1.29408,1.14927 2.65067,2.35091 1.35658,1.20164 2.71763,2.4076 3.02455,2.6799 3.99398,3.54354 4.6457,4.11542 4.67634,4.10344 0.0387,-0.0151 12.94948,-4.38855 19.7433,-6.68785 2.5413,-0.86008 4.62784,-1.57027 4.63676,-1.57819 0.009,-0.008 0.1323,-0.56659 0.27416,-1.24149 0.14186,-0.67489 0.26331,-1.24466 0.26988,-1.26614 0.0108,-0.0352 0.0494,-0.0391 0.3899,-0.0391 0.28739,0 0.37801,0.007 0.37816,0.0279 3.5e-4,0.0534 -0.6985,3.42087 -0.71346,3.43782 -0.008,0.009 -2.33473,0.77106 -5.16987,1.69261 -2.83515,0.92155 -8.58227,2.78971 -12.77138,4.15146 -4.18911,1.36176 -7.61997,2.47592 -7.62414,2.47592 -0.004,0 -0.94187,-0.87137 -2.08377,-1.93638 z"
       id="path4207"
       inkscape:connector-curvature="0" />
    <path
       style="fill:#c83737;fill-opacity:1"
       d="m 219.1532,390.92563 0.003,-2.36806 3.68115,-1.19683 c 2.02464,-0.65826 3.68295,-1.19863 3.68514,-1.20082 0.002,-0.002 0.38726,-1.85962 0.85572,-4.12763 l 0.85174,-4.12364 8.6244,-0.003 8.6244,-0.003 0,7.69532 0,7.69532 -13.16409,0 -13.16409,0 0.003,-2.36806 z"
       id="path4209"
       inkscape:connector-curvature="0" />
    <path
       style="fill:#c83737;fill-opacity:1"
       d="m 219.1532,390.92522 0.003,-2.36847 2.80134,-0.91084 c 3.86268,-1.25594 4.56301,-1.48402 4.56571,-1.48695 0.002,-0.002 1.58635,-7.6654 1.67634,-8.10801 l 0.0301,-0.14788 8.62455,0 8.62455,0 0,7.69531 0,7.69531 -13.16409,0 -13.16409,0 0.003,-2.36847 z"
       id="path4211"
       inkscape:connector-curvature="0" />
    <path
       style="fill:#c83737;fill-opacity:1"
       d="m 227.2208,382.71076 c -6.7e-4,-0.011 -0.0143,-0.023 -0.0319,-0.0279 -0.0169,-0.005 -0.17885,-0.009 -0.35993,-0.009 -0.24781,-4e-5 -0.33545,0.003 -0.35435,0.0143 -0.0138,0.008 -0.0251,0.01 -0.0251,0.004 0,-0.0158 1.00426,-4.78201 1.00848,-4.78623 0.002,-0.002 0.17435,-0.002 0.38289,-7.8e-4 l 0.37917,0.003 -0.4832,2.33817 c -0.53491,2.58845 -0.51447,2.49087 -0.51609,2.46394 z"
       id="path4213"
       inkscape:connector-curvature="0" />
    <path
       style="fill:#c83737;fill-opacity:1"
       d="m 227.47995,377.8316 c 0.009,-0.0391 0.7226,-3.43057 1.58509,-7.53669 0.9393,-4.47179 1.58502,-7.47911 1.61018,-7.49921 0.0436,-0.0348 0.63759,-0.12729 0.66182,-0.10306 0.008,0.008 -0.69239,3.43288 -1.55542,7.61185 l -1.56914,7.59814 -0.37472,0 c -0.37257,0 -0.37463,-4.1e-4 -0.35781,-0.071 z"
       id="path4215"
       inkscape:connector-curvature="0" />
    <path
       style="fill:#c83737;fill-opacity:1"
       d="m 235.55597,362.78844 c -2.0384,-0.10989 -3.70219,-0.20108 -3.69731,-0.20264 0.008,-0.003 0.49537,-0.0725 0.77832,-0.11168 1.14057,-0.15775 2.46205,-0.31957 3.57696,-0.43802 1.00718,-0.107 1.89129,-0.1919 2.79174,-0.26808 0.14106,-0.0119 0.26491,-0.0227 0.27522,-0.0239 l 0.0188,-0.002 0,0.0466 0,0.0466 -0.20618,0.017 c -0.2127,0.0175 -0.27804,0.0231 -0.63036,0.0539 -1.11285,0.0971 -3.02844,0.2897 -3.90842,0.39295 -0.82399,0.0967 -1.194,0.16199 -1.21818,0.21504 -0.004,0.009 -0.003,0.0112 0.005,0.0197 0.0549,0.055 0.52471,0.10084 1.59168,0.15547 0.276,0.0141 0.30965,0.0158 0.4814,0.0238 0.30395,0.0141 0.92761,0.0433 1.14234,0.0534 0.0705,0.003 0.29515,0.014 0.49916,0.0237 0.32714,0.0156 0.56654,0.0272 1.17982,0.0571 0.2888,0.0141 0.71528,0.0352 0.83654,0.0414 0.0651,0.003 0.14279,0.007 0.17263,0.009 l 0.0543,0.002 0,0.0448 0,0.0448 -0.0188,-4.5e-4 c -0.0103,-2.4e-4 -1.68653,-0.0904 -3.72493,-0.20025 z"
       id="path4217"
       inkscape:connector-curvature="0" />
    <path
       style="fill:#c83737;fill-opacity:1"
       d="m 311.1323,544.54303 c 0,-0.0188 0.25043,-0.36681 0.55652,-0.7734 2.85867,-3.79728 5.74149,-8.60133 7.81243,-13.01892 3.38723,-7.22543 5.49379,-14.40951 6.62755,-22.60217 l 0.1529,-1.10485 -0.0323,1.13132 c -0.11748,4.1109 -0.7092,8.33384 -1.61519,11.52715 -1.32338,4.66449 -4.38792,11.34511 -7.5878,16.54125 -1.57295,2.55423 -3.67147,5.56415 -5.42518,7.78133 -0.41017,0.51858 -0.4889,0.60203 -0.4889,0.51829 z"
       id="path4219"
       inkscape:connector-curvature="0" />
    <path
       style="fill:#c83737;fill-opacity:1"
       d="m 357.52536,567.72581 c -5.71805,-1.18603 -10.41342,-2.1735 -10.43414,-2.1944 -0.0207,-0.0209 0.1802,-0.0564 0.4465,-0.0789 2.50924,-0.2121 5.78248,0.32448 14.01985,2.29826 2.40211,0.57558 2.87425,0.65499 3.61789,0.60846 2.16966,-0.13573 3.72156,-1.81527 6.48638,-7.01982 0.56347,-1.06069 5.61737,-11.00961 5.64764,-11.11774 0.0107,-0.0381 -3.58876,-3.55673 -7.99871,-7.81927 -4.40995,-4.26254 -8.2955,-8.02479 -8.63456,-8.36056 l -0.61647,-0.61049 1.35786,-6.77173 c 0.74681,-3.72445 1.48776,-7.36042 1.64655,-8.07992 0.80319,-3.63954 1.4837,-5.84307 2.30504,-7.46381 0.20236,-0.39933 0.36941,-0.6807 0.37121,-0.62528 0.003,0.0816 -4.53284,22.49938 -4.7252,23.35551 l -0.0556,0.24734 8.51413,7.54764 c 4.68278,4.1512 8.58555,7.61095 8.67283,7.68833 l 0.15869,0.14068 -0.62186,1.51586 c -2.0679,5.04081 -4.80301,10.54733 -8.07466,16.25652 -1.335,2.32962 -1.53141,2.65205 -1.61171,2.6457 -0.0414,-0.003 -4.75364,-0.97634 -10.47169,-2.16236 z"
       id="path4221"
       inkscape:connector-curvature="0" />
    <path
       style="fill:#c83737;fill-opacity:1"
       d="m 367.4483,508.27346 c 0.97655,-0.87815 2.30302,-1.64584 3.97748,-2.30193 1.66913,-0.654 3.0478,-1.06844 10.29093,-3.09359 2.30914,-0.64562 4.24816,-1.18891 4.30893,-1.20731 0.1044,-0.0316 0.11045,-0.43578 0.10988,-7.33702 -5.5e-4,-6.70267 -0.046,-9.33384 -0.17982,-10.41295 l -0.0489,-0.39459 0.45065,0 0.45066,0 0.13924,1.37318 c 0.28849,2.84487 0.4976,5.71671 0.64013,8.79148 0.0773,1.6682 0.20637,8.02295 0.16377,8.06554 -0.0357,0.0357 -20.12831,6.62606 -20.36604,6.68005 -0.1464,0.0333 -0.14183,0.0215 0.0631,-0.16286 z"
       id="path4223"
       inkscape:connector-curvature="0" />
    <path
       style="fill:#c83737;fill-opacity:1"
       d="m 362.67875,471.49583 c -0.98811,-1.67599 -1.89025,-3.67742 -2.82935,-6.27703 -0.60553,-1.67622 -1.66555,-4.80441 -2.05782,-6.07277 -0.65957,-2.13265 -1.06639,-3.77365 -1.2614,-5.08812 -0.0882,-0.59484 -0.15349,-1.25952 -0.13783,-1.40409 0.008,-0.0705 0.9729,2.74113 3.2876,9.57634 1.80224,5.32191 3.27171,9.68128 3.26548,9.68751 -0.006,0.006 -0.12623,-0.18361 -0.26668,-0.42184 z"
       id="path4225"
       inkscape:connector-curvature="0" />
    <path
       style="fill:#c83737;fill-opacity:1"
       d="m 357.25892,447.79746 c 0,-0.01 0.11195,-0.24615 0.20199,-0.42612 0.52167,-1.04257 1.26304,-2.17633 2.31868,-3.54587 0.45392,-0.58889 0.91718,-1.16429 1.57402,-1.95504 l 0.31289,-0.37667 0.07,-1.6e-4 0.07,-1.6e-4 -0.0352,0.0414 c -0.0677,0.0798 -0.56518,0.68322 -0.79206,0.96083 -2.02625,2.47921 -2.97905,3.79413 -3.03054,4.1823 -0.004,0.0328 -0.003,0.0404 0.008,0.0446 0.0638,0.0245 0.36488,-0.24379 0.76721,-0.68372 0.56928,-0.62247 1.81233,-2.01531 3.66399,-4.10551 l 0.38976,-0.43997 0.0353,0 c 0.0323,0 0.0343,0.001 0.0244,0.0135 -0.0124,0.0155 -5.54149,6.25625 -5.56384,6.27995 -0.008,0.009 -0.0147,0.0133 -0.0147,0.0105 z"
       id="path4227"
       inkscape:connector-curvature="0" />
    <path
       style="fill:#c83737;fill-opacity:1"
       d="m 319.41493,407.60578 c -1.86859,-1.61006 -3.39848,-2.93217 -3.39975,-2.93804 -0.001,-0.006 0.2307,-1.12721 0.51551,-2.49186 0.28481,-1.36464 0.5198,-2.49094 0.5222,-2.50288 0.004,-0.0207 0.007,-0.0217 0.0499,-0.0217 l 0.0455,0 -0.0268,0.12824 c -0.0532,0.25416 -0.47821,2.38075 -0.57452,2.8746 -0.26928,1.38071 -0.35422,1.85609 -0.34102,1.90866 0.028,0.11144 1.8915,1.79251 4.26258,3.84521 0.2257,0.1954 0.86316,0.74522 1.41658,1.22182 0.55341,0.47659 1.015,0.87503 1.02575,0.88541 l 0.0195,0.0189 -0.059,-4.9e-4 -0.059,-4.9e-4 -3.39743,-2.92737 0,10e-6 z"
       id="path4229"
       inkscape:connector-curvature="0" />
    <path
       style="fill:#c83737;fill-opacity:1"
       d="m 328.35243,415.30605 c -0.0322,-0.0279 -1.28906,-1.11037 -2.79297,-2.40559 -1.5039,-1.29521 -2.73686,-2.35723 -2.73989,-2.36004 -0.005,-0.004 0.005,-0.005 0.0551,-0.006 l 0.0607,-0.001 0.83352,0.71821 c 1.91897,1.65348 4.60685,3.96982 4.6315,3.9913 l 0.0128,0.0111 -0.001,0.0515 -0.001,0.0515 -0.0586,-0.0506 z"
       id="path4231"
       inkscape:connector-curvature="0" />
    <path
       style="fill:#c83737;fill-opacity:1"
       d="m 328.38759,414.33054 c -0.0129,-0.0114 -0.15967,-0.14107 -0.32617,-0.28818 -0.34161,-0.3018 -0.84247,-0.74491 -0.96875,-0.85705 -0.0462,-0.041 -0.25449,-0.22561 -0.46289,-0.41023 -0.66824,-0.59195 -2.97989,-2.64549 -3.12481,-2.77588 -0.002,-0.002 0.0136,-0.003 0.0356,-0.003 l 0.0393,0 2.03084,1.78223 c 1.11697,0.98022 2.20298,1.93339 2.41336,2.11816 0.21038,0.18477 0.38399,0.33695 0.3858,0.33819 0.002,0.001 0.003,0.028 0.002,0.0595 l -0.001,0.0573 -0.0234,-0.0207 z"
       id="path4233"
       inkscape:connector-curvature="0" />
    <path
       style="fill:#c83737;fill-opacity:1"
       d="m 307.71506,611.02423 -7.13736,-6.32934 -0.006,-0.35407 -0.006,-0.35408 0.42592,0.34979 c 1.56009,1.2812 7.34825,6.02067 7.67377,6.28344 4.06804,3.28383 7.82963,5.45545 9.92825,5.73168 0.56635,0.0746 0.94171,0.0254 1.31422,-0.17206 0.83211,-0.4411 3.90321,-2.3444 6.86135,-4.25229 1.92801,-1.2435 8.35714,-5.47051 8.3573,-5.49476 2.3e-4,-0.019 -0.44827,-1.32449 -4.62693,-13.47093 l -2.08672,-6.06565 0.34375,-0.006 c 0.18906,-0.003 0.34612,-0.003 0.34902,0 0.0105,0.0121 6.64794,19.5853 6.65649,19.62935 0.007,0.0367 -0.11496,0.14295 -0.65033,0.56575 -5.04877,3.98728 -9.98631,7.3773 -14.82719,10.18005 l -0.15854,0.0918 -2.63674,-0.002 -2.63675,-0.002 -7.13736,-6.32934 z"
       id="path4235"
       inkscape:connector-curvature="0" />
    <path
       style="fill:#c83737;fill-opacity:1"
       d="m 327.83518,607.09319 0,-2.69336 3.29388,9.8e-4 3.29388,9.8e-4 0.34929,1.01562 c 0.1921,0.5586 0.3499,1.01636 0.35065,1.01725 0.0159,0.019 -0.0414,-0.15164 -0.51971,-1.54512 -0.0915,-0.2667 -0.16642,-0.48599 -0.16642,-0.48731 0,-0.001 0.13674,-0.002 0.30387,-0.002 l 0.30388,0 0.24167,0.71387 c 0.13291,0.39263 0.2942,0.87027 0.35842,1.06143 l 0.11676,0.34757 -0.007,0.0148 c -0.0163,0.0362 -0.14425,0.14772 -0.4449,0.38778 -0.91593,0.73137 -2.28867,1.78779 -3.43495,2.64344 l -0.29161,0.21767 -0.76348,10e-5 c -0.44858,6e-5 -0.76194,-0.001 -0.75976,-0.003 0.002,-0.002 0.0907,-0.0605 0.19707,-0.1302 1.43634,-0.94123 3.414,-2.24434 4.24707,-2.79845 0.25298,-0.16826 0.45996,-0.30696 0.45996,-0.30822 0,-0.001 -0.001,-0.001 -0.003,-4.6e-4 -0.002,10e-4 -1.11208,0.7306 -2.46771,1.62132 l -2.46477,1.6195 -1.09675,0 -1.09675,0 0,-2.69336 z"
       id="path4237"
       inkscape:connector-curvature="0" />
    <path
       style="fill:#c83737;fill-opacity:1"
       d="m 315.8733,618.26024 -1.01142,-0.89649 1.3148,-0.002 c 0.72314,-0.001 1.90806,-0.001 2.63316,0 l 1.31836,0.002 -0.39844,0.22756 c -0.90226,0.5153 -1.71438,0.96392 -2.61988,1.44722 -0.12179,0.065 -0.22228,0.11819 -0.2233,0.11819 -0.001,0 -0.457,-0.40341 -1.01328,-0.89648 z"
       id="path4239"
       inkscape:connector-curvature="0" />
    <path
       style="fill:#c83737;fill-opacity:1"
       d="m 316.22784,618.56883 c -0.36034,-0.31904 -0.81185,-0.71894 -1.00335,-0.88867 l -0.34819,-0.30859 1.30759,-0.002 c 0.71918,-0.001 1.89638,-0.001 2.616,0 l 1.30842,0.002 -0.25959,0.14782 c -0.96014,0.54674 -1.64806,0.92869 -2.43146,1.34997 -0.36134,0.19432 -0.52278,0.27955 -0.5295,0.27955 -0.003,0 -0.29958,-0.26103 -0.65992,-0.58008 z"
       id="path4241"
       inkscape:connector-curvature="0" />
    <path
       style="fill:#c83737;fill-opacity:1"
       d="m 316.66922,617.3618 c 0.45224,-0.001 1.19228,-0.001 1.64453,0 0.45224,0.001 0.0822,0.002 -0.82227,0.002 -0.90449,0 -1.27451,-9.1e-4 -0.82226,-0.002 z"
       id="path4243"
       inkscape:connector-curvature="0" />
    <path
       style="fill:#c83737;fill-opacity:1"
       d="m 319.93289,617.36939 c -0.0988,-0.001 -0.39414,-0.005 -0.65625,-0.008 l -0.47656,-0.006 0.66211,-0.001 c 0.59236,-0.001 0.69165,0.001 0.65625,0.0158 -0.003,0.001 -0.0867,0.001 -0.18555,2.4e-4 z"
       id="path4245"
       inkscape:connector-curvature="0" />
    <path
       style="fill:#c83737;fill-opacity:1"
       d="m 318.86062,617.35406 c 0.029,-0.002 0.0765,-0.002 0.10547,0 0.029,0.001 0.005,0.003 -0.0527,0.003 -0.058,0 -0.0817,-0.001 -0.0527,-0.003 z"
       id="path4247"
       inkscape:connector-curvature="0" />
    <path
       style="fill:#c83737;fill-opacity:1"
       d="m 314.85453,617.35855 c -0.003,-0.003 0.5082,-0.004 2.05014,-0.003 1.12961,0.001 2.0556,0.002 2.05775,0.003 0.002,7.3e-4 -0.92041,0.002 -2.05014,0.003 -1.53895,9.7e-4 -2.05497,1.7e-4 -2.05775,-0.003 z"
       id="path4249"
       inkscape:connector-curvature="0" />
    <path
       style="fill:#c83737;fill-opacity:1"
       d="m 314.91062,617.35839 c 0.004,-9.8e-4 0.0108,-0.001 0.0156,-8e-5 0.005,9.3e-4 0.002,0.002 -0.007,0.002 -0.009,5e-5 -0.0126,-7.2e-4 -0.009,-0.002 z"
       id="path4251"
       inkscape:connector-curvature="0" />
    <path
       style="fill:#c83737;fill-opacity:1"
       d="m 314.87763,617.35426 c 0.0157,-7.4e-4 0.0403,-7.4e-4 0.0547,1e-5 0.0144,7.5e-4 0.002,0.001 -0.0285,0.001 -0.0301,0 -0.0419,-6.2e-4 -0.0262,-0.001 z"
       id="path4253"
       inkscape:connector-curvature="0" />
    <path
       style="fill:#c83737;fill-opacity:1"
       d="m 316.77101,619.05333 c -1.28652,-1.13967 -1.64111,-1.45383 -1.74232,-1.54365 -0.0667,-0.0592 -0.1308,-0.11594 -0.14251,-0.12615 l -0.0213,-0.0186 0.65618,-9.6e-4 0.65618,-9.6e-4 -0.57422,-0.002 c -0.31582,-0.001 0.15528,-0.002 1.04688,-0.001 0.8916,7e-4 1.89267,0.002 2.22461,0.003 0.37129,8.4e-4 0.55166,1.5e-4 0.46875,-0.002 -0.0741,-0.002 -1.1144,-0.004 -2.31172,-0.006 l -2.17696,-0.002 -0.57109,-0.50629 c -0.3141,-0.27847 -0.60097,-0.53286 -0.6375,-0.56532 -0.0916,-0.0814 -0.29114,-0.25839 -0.63867,-0.56648 -0.16221,-0.1438 -0.35425,-0.3141 -0.42676,-0.37843 l -0.13183,-0.11697 0,-0.0638 0,-0.0638 1.39035,0 1.39036,0 0.11257,0.0589 c 0.13821,0.0723 0.46105,0.23356 0.60867,0.30403 1.12698,0.53792 2.04831,0.84113 2.77734,0.91401 0.13977,0.014 0.21477,0.0171 0.35689,0.015 0.18112,-0.003 0.29018,-0.0157 0.43067,-0.0511 0.0581,-0.0146 0.15752,-0.0451 0.1551,-0.0475 -8.3e-4,-8.3e-4 -0.0207,0.005 -0.0441,0.012 -0.27104,0.086 -0.62456,0.10192 -1.03588,0.0466 -0.70017,-0.0942 -1.59802,-0.39875 -2.62835,-0.89171 -0.22026,-0.10538 -0.56381,-0.27788 -0.6875,-0.34521 l -0.0273,-0.0149 3.208,-6e-5 3.20801,-5e-5 0,0.0205 0,0.0205 -0.12792,0.0778 c -0.79862,0.48589 -1.61519,0.9645 -1.75006,1.02572 -0.0156,0.007 -0.0277,0.0135 -0.0269,0.0143 0.002,0.002 0.0734,-0.0309 0.13067,-0.0603 0.23293,-0.11943 0.84181,-0.47684 1.61799,-0.94976 l 0.1543,-0.094 9.9e-4,0.65108 c 5.4e-4,0.35809 -3.4e-4,0.65239 -0.002,0.65399 -0.0112,0.0112 -0.85986,0.51212 -1.33299,0.78692 l -0.20115,0.11683 -0.0332,0.002 -0.0332,0.002 0.0281,6.8e-4 c 0.0154,3.7e-4 0.029,0.002 0.03,0.004 0.001,0.002 -0.0634,0.0402 -0.14332,0.0857 -0.0799,0.0455 -0.21816,0.12425 -0.30732,0.17509 -0.76025,0.43355 -1.45562,0.81905 -2.20313,1.22135 -0.38319,0.20624 -0.57415,0.30788 -0.57787,0.30758 -0.001,-10e-5 -0.0532,-0.0453 -0.11549,-0.10053 z m 2.93946,-2.78276 c 0.004,-0.003 0.003,-0.003 -0.004,-0.001 -0.005,0.001 -0.0124,0.004 -0.0156,0.006 -0.004,0.003 -0.003,0.003 0.004,0.001 0.005,-0.001 0.0124,-0.004 0.0156,-0.006 z m 0.0195,-0.007 c 0.003,-0.002 0.004,-0.004 0.002,-0.004 -0.002,0 -0.007,0.002 -0.01,0.004 -0.003,0.002 -0.004,0.004 -0.002,0.004 0.002,0 0.007,-0.002 0.01,-0.004 z m 0.0195,-0.008 c 0.003,-0.002 0.004,-0.004 0.002,-0.004 -0.002,0 -0.007,0.002 -0.01,0.004 -0.003,0.002 -0.004,0.004 -0.002,0.004 0.002,0 0.007,-0.002 0.01,-0.004 z"
       id="path4255"
       inkscape:connector-curvature="0" />
    <path
       style="fill:#c83737;fill-opacity:1"
       d="m 316.73558,619.022 c -0.19359,-0.17135 -1.07561,-0.95281 -1.20675,-1.06916 -0.15985,-0.14183 -0.61482,-0.54477 -0.6395,-0.56638 l -0.0223,-0.0195 0.0809,-0.002 c 0.11111,-0.003 0.10733,-0.009 -0.006,-0.0108 l -0.087,-0.001 -0.5361,-0.47534 c -0.29485,-0.26143 -0.59938,-0.53149 -0.67672,-0.60012 -0.0774,-0.0686 -0.37749,-0.33485 -0.667,-0.59159 l -0.52636,-0.46679 0,-0.0639 0,-0.0639 1.39034,0 1.39035,0 0.13993,0.0729 c 0.16016,0.0835 0.48684,0.24568 0.64774,0.3216 1.10083,0.51943 1.99585,0.81076 2.71093,0.88242 0.13707,0.0137 0.21894,0.0171 0.35743,0.0149 0.17133,-0.003 0.27208,-0.0139 0.40131,-0.044 0.0597,-0.0139 0.17811,-0.0486 0.17538,-0.0513 -8.6e-4,-8.7e-4 -0.0242,0.005 -0.0518,0.0138 -0.30735,0.0943 -0.72037,0.0983 -1.2084,0.0118 -0.78413,-0.13899 -1.79321,-0.52016 -2.94342,-1.11183 -0.0924,-0.0475 -0.17763,-0.0918 -0.18945,-0.0983 l -0.0215,-0.0119 3.208,-7e-5 3.20801,-7e-5 0,0.0205 0,0.0205 -0.12792,0.0778 c -0.79714,0.48486 -1.60042,0.95575 -1.74606,1.02357 -0.0307,0.0143 -0.0297,0.0175 0.001,0.004 0.18011,-0.0796 0.71403,-0.38889 1.61291,-0.93446 0.13964,-0.0848 0.25522,-0.15487 0.25683,-0.15579 0.002,-9.3e-4 0.003,0.29191 0.003,0.65076 l 0,0.65244 -0.13965,0.0835 c -0.3068,0.18353 -0.80619,0.47748 -1.18823,0.69943 l -0.21265,0.12354 -0.0256,7.1e-4 c -0.023,6.3e-4 -0.0236,8.4e-4 -0.006,0.002 0.0107,7.5e-4 0.0221,0.002 0.0252,0.003 0.003,0.001 -0.0188,0.016 -0.0527,0.0354 -0.71723,0.41043 -1.2249,0.69609 -1.79861,1.01207 -0.47681,0.26261 -1.37172,0.74455 -1.37978,0.74306 -5.9e-4,-1.1e-4 -0.068,-0.0594 -0.14979,-0.13184 z m -0.96779,-1.65995 c -0.10705,-5.8e-4 -0.28108,-5.8e-4 -0.38672,0 -0.10565,5.7e-4 -0.0181,0.001 0.19463,0.001 0.2127,0 0.29913,-4.8e-4 0.19209,-0.001 z m 3.47197,-0.001 c -0.14994,-0.004 -1.60351,-0.006 -1.60351,-0.003 0,0.002 0.26411,0.003 0.58691,0.004 1.14497,0.002 1.13958,0.002 1.0166,-0.001 z m 0.46882,-1.08961 c 0.001,-0.002 -0.002,-0.002 -0.006,-0.001 -0.004,0.001 -0.009,0.003 -0.01,0.005 -0.001,0.002 0.002,0.002 0.006,0.001 0.004,-0.001 0.009,-0.003 0.01,-0.005 z m 0.0214,-0.008 c 0.003,-0.002 0.004,-0.004 0.002,-0.004 -0.002,0 -0.007,0.002 -0.01,0.004 -0.003,0.002 -0.004,0.004 -0.002,0.004 0.002,0 0.007,-0.002 0.01,-0.004 z m 0.0195,-0.008 c 0.003,-0.002 0.004,-0.004 0.002,-0.004 -0.002,0 -0.007,0.002 -0.01,0.004 -0.003,0.002 -0.004,0.004 -0.002,0.004 0.002,0 0.007,-0.002 0.01,-0.004 z"
       id="path4257"
       inkscape:connector-curvature="0" />
    <path
       style="fill:#c83737;fill-opacity:1"
       d="m 316.75539,619.03973 c -0.0709,-0.0627 -0.45323,-0.40141 -0.84961,-0.75263 -0.39639,-0.35123 -0.79229,-0.70195 -0.87979,-0.77939 -0.11749,-0.10397 -0.15706,-0.14111 -0.15136,-0.14203 0.0123,-0.002 0.009,-0.006 -0.006,-0.008 -0.01,-7e-4 -0.0175,-0.005 -0.0283,-0.0163 -0.008,-0.008 -0.27232,-0.24345 -0.58707,-0.5223 -0.31474,-0.27885 -0.84956,-0.7529 -1.18847,-1.05346 l -0.61621,-0.54646 0,-0.0641 0,-0.0641 1.39047,0 1.39048,0 0.12808,0.0665 c 1.30059,0.67533 2.39621,1.08042 3.22675,1.19305 0.19334,0.0262 0.33817,0.0354 0.50484,0.0321 0.15036,-0.003 0.24402,-0.0121 0.34961,-0.0338 0.0642,-0.0132 0.14783,-0.0352 0.13388,-0.0352 -0.001,0 -0.0239,0.005 -0.0505,0.0115 -0.0819,0.0195 -0.17054,0.0332 -0.2846,0.0438 -0.0689,0.006 -0.31479,0.006 -0.39844,0 -0.42272,-0.0325 -0.85111,-0.12693 -1.39258,-0.30706 -0.49753,-0.16552 -1.00883,-0.37892 -1.62109,-0.67659 -0.14941,-0.0726 -0.49384,-0.24727 -0.55664,-0.28221 l -0.0215,-0.012 3.208,-7e-5 3.20801,-7e-5 0,0.0207 0,0.0207 -0.11816,0.0718 c -0.71224,0.43266 -1.41932,0.84959 -1.67943,0.99027 -0.0358,0.0193 -0.0644,0.0357 -0.0638,0.0364 6.9e-4,6.9e-4 0.0326,-0.0146 0.071,-0.034 0.22451,-0.11357 0.74157,-0.4158 1.52673,-0.8924 0.13105,-0.0795 0.24399,-0.14801 0.25098,-0.15214 l 0.0127,-0.008 0,0.6526 0,0.65259 -0.15918,0.0953 c -0.30003,0.17957 -0.76289,0.45207 -1.15477,0.67985 -0.18963,0.11023 -0.22865,0.13151 -0.24218,0.13206 l -0.0161,6.6e-4 0.0146,0.002 c 0.008,8.4e-4 0.0146,0.003 0.0146,0.004 -1e-4,0.006 -0.98079,0.56182 -1.48433,0.84152 -0.61762,0.34307 -1.73795,0.94976 -1.75089,0.94816 -5.9e-4,-8e-5 -0.0591,-0.0515 -0.12997,-0.11418 z m 2.03613,-1.68159 c -0.12407,-5.7e-4 -0.3271,-5.7e-4 -0.45117,0 -0.12407,5.7e-4 -0.0226,0.001 0.22558,0.001 0.24815,0 0.34966,-4.7e-4 0.22559,-0.001 z m -3.78906,-0.004 c -0.004,-9.8e-4 -0.01,-9.8e-4 -0.0137,0 -0.004,9.8e-4 -6.9e-4,0.002 0.007,0.002 0.008,0 0.0106,-8.1e-4 0.007,-0.002 z m 4.59277,-1.04418 c 0.005,-0.002 0.006,-0.003 0.002,-0.003 -0.003,0 -0.009,0.002 -0.0137,0.003 -0.005,0.002 -0.006,0.003 -0.002,0.003 0.003,0 0.009,-0.002 0.0137,-0.003 z m 0.0391,-0.0117 c 0.005,-0.002 0.006,-0.003 0.002,-0.003 -0.003,0 -0.009,0.002 -0.0137,0.003 -0.005,0.002 -0.006,0.003 -0.002,0.003 0.003,0 0.009,-0.002 0.0137,-0.003 z m 0.0937,-0.0351 c 0.001,-0.002 -2e-4,-0.003 -0.004,-0.002 -0.007,0.003 -0.008,0.005 -0.002,0.005 0.002,0 0.005,-0.002 0.006,-0.004 z m 0.0195,-0.008 c 0.001,-0.002 -2e-4,-0.003 -0.004,-0.002 -0.007,0.003 -0.008,0.005 -0.002,0.005 0.002,0 0.005,-0.002 0.006,-0.004 z m 0.0407,-0.0182 c 0.005,-0.005 -0.007,-3.3e-4 -0.0136,0.005 -0.007,0.006 -0.007,0.006 0.002,0.001 0.005,-0.003 0.0105,-0.005 0.0114,-0.006 z"
       id="path4259"
       inkscape:connector-curvature="0" />
    <path
       style="fill:#c83737;fill-opacity:1"
       d="m 316.85623,619.1283 -0.029,-0.0252 0,-1.62917 c 0,-0.89603 0.002,-1.62915 0.004,-1.62914 0.002,10e-6 0.0389,0.0138 0.0815,0.0307 0.89759,0.35606 1.67612,0.532 2.2361,0.50532 0.12436,-0.006 0.2291,-0.0174 0.2802,-0.0307 0.0296,-0.008 0.0297,-0.008 0.006,-0.005 -0.0137,0.002 -0.0485,0.006 -0.0773,0.0106 -0.18728,0.0273 -0.43701,0.0262 -0.69305,-0.003 -0.48687,-0.0558 -1.12419,-0.23302 -1.77354,-0.49306 l -0.0608,-0.0243 -0.001,-1.9591 -0.001,-1.95911 4.96743,0 c 2.76774,0 4.96511,0.002 4.96218,0.005 -0.003,0.003 -0.14446,0.0942 -0.3146,0.20354 -1.13488,0.7293 -2.25308,1.4386 -3.18055,2.0175 -0.0843,0.0526 -0.1518,0.098 -0.15005,0.10081 0.004,0.006 -0.0374,0.0316 0.45521,-0.27709 0.92436,-0.57925 2.02079,-1.27575 2.97743,-1.8914 l 0.24567,-0.15811 0.91581,0 c 0.50369,0 0.9158,0.001 0.9158,0.002 0,0.003 -0.46037,0.32381 -0.78168,0.54536 -1.71223,1.1806 -3.42578,2.29967 -5.08509,3.32093 -0.62197,0.3828 -1.24769,0.76038 -1.78434,1.07673 -0.26384,0.15553 -0.79581,0.46548 -0.83274,0.48519 -0.0159,0.009 -0.0264,0.0163 -0.0232,0.0174 0.013,0.004 -1.23632,0.70945 -1.97249,1.11322 -0.43288,0.23742 -1.24757,0.67597 -1.25481,0.67548 -0.001,-8e-5 -0.015,-0.0115 -0.031,-0.0254 z m 2.62403,-2.79002 c -0.004,-0.002 -0.01,-0.002 -0.0138,0 -0.004,0.002 -6.9e-4,0.003 0.007,0.003 0.008,0 0.0107,-0.001 0.007,-0.003 z m 0.0218,-0.006 c -0.004,-0.002 -0.009,-0.001 -0.0106,4.3e-4 -0.002,0.002 0.001,0.003 0.007,0.003 0.006,-2.7e-4 0.008,-0.002 0.003,-0.003 l 0,0 z m 0.0221,-0.006 c -0.004,-0.002 -0.009,-0.001 -0.0106,4.4e-4 -0.002,0.002 0.001,0.003 0.007,0.003 0.006,-2.6e-4 0.008,-0.002 0.003,-0.003 l 0,0 z m 0.0221,-0.006 c -0.004,-0.002 -0.009,-0.001 -0.0106,4.4e-4 -0.002,0.002 0.001,0.003 0.007,0.003 0.006,-2.7e-4 0.008,-0.002 0.003,-0.003 l 0,0 z m 0.55691,-0.24916 c 0.27032,-0.1521 0.74244,-0.43159 1.29268,-0.76525 0.13521,-0.082 0.25454,-0.15395 0.26517,-0.15993 0.0787,-0.0443 1.42704,-0.87812 1.44164,-0.89156 0.007,-0.007 0.007,-0.007 -6.3e-4,-0.007 -0.005,0 -0.13522,0.0786 -0.28983,0.17475 -0.15461,0.0961 -0.46507,0.28778 -0.6899,0.42593 -0.22484,0.13815 -0.42229,0.25995 -0.43877,0.27066 -0.0734,0.0476 -0.71614,0.43503 -1.03345,0.62283 -0.33886,0.20054 -0.64601,0.37798 -0.76926,0.4444 -0.0296,0.016 -0.0539,0.0303 -0.0539,0.0318 0,0.004 0.14973,-0.075 0.27621,-0.14617 z"
       id="path4261"
       inkscape:connector-curvature="0" />
    <path
       style="fill:#c83737;fill-opacity:1"
       d="m 316.85614,619.1285 -0.0289,-0.0253 0,-1.62924 c 0,-0.89804 0.002,-1.62923 0.005,-1.62923 0.003,0 0.043,0.0151 0.0898,0.0336 0.71794,0.28343 1.33748,0.44779 1.8611,0.49373 0.11056,0.01 0.36666,0.0114 0.46404,0.003 0.0695,-0.006 0.18403,-0.0222 0.18062,-0.0256 -0.001,-0.001 -0.0429,0.003 -0.0928,0.0102 -0.0793,0.0108 -0.11525,0.0123 -0.28674,0.0125 -0.23755,2.1e-4 -0.36218,-0.0102 -0.59938,-0.0501 -0.43359,-0.0729 -0.94748,-0.22368 -1.50813,-0.44258 l -0.11049,-0.0431 -0.001,-1.95968 -0.001,-1.95969 4.96632,0 c 2.73148,0 4.96633,10e-4 4.96633,0.002 0,0.001 -0.0193,0.0145 -0.0428,0.0295 -0.0236,0.015 -0.13852,0.089 -0.2555,0.1644 -0.8983,0.57894 -2.26131,1.44432 -3.0494,1.93605 -0.0987,0.0616 -0.20937,0.13123 -0.24583,0.1547 -0.0365,0.0235 -0.0974,0.0615 -0.13534,0.0846 -0.081,0.0492 -0.0923,0.0571 -0.0877,0.0617 0.002,0.002 0.14232,-0.0833 0.31212,-0.18921 0.9678,-0.60374 2.05403,-1.29279 3.30543,-2.0968 l 0.22905,-0.14716 0.91704,0 c 0.78432,0 0.91587,0.001 0.90895,0.008 -0.01,0.009 -0.38625,0.27157 -0.75939,0.52897 -1.8763,1.29428 -3.71352,2.48833 -5.54913,3.6065 -0.80626,0.49114 -1.25366,0.75691 -2.15297,1.27896 -0.022,0.0128 -0.0389,0.0242 -0.0376,0.0255 0.002,0.003 -0.0656,0.0421 -0.39476,0.22974 -0.88261,0.50307 -1.64919,0.927 -2.50249,1.38393 -0.22808,0.12213 -0.3291,0.1755 -0.33215,0.1755 -0.001,0 -0.0153,-0.0114 -0.0312,-0.0253 z m 2.59063,-2.78481 c -0.004,-0.002 -0.009,-0.001 -0.0106,4.3e-4 -0.002,0.002 0.001,0.003 0.007,0.003 0.006,-2.6e-4 0.008,-0.002 0.003,-0.003 l 0,0 z m 0.59006,-0.23531 c 0.2599,-0.14308 0.68945,-0.39719 1.53023,-0.90525 0.3632,-0.21947 1.33238,-0.81735 1.34759,-0.83131 0.0309,-0.0284 -0.0297,0.006 -0.24885,0.1422 -0.13792,0.0856 -0.40241,0.24877 -0.58775,0.3627 -0.18534,0.11393 -0.37178,0.22882 -0.41432,0.25531 -0.42625,0.26545 -1.50842,0.90593 -1.77743,1.05198 -0.0266,0.0144 -0.0483,0.0275 -0.0483,0.029 0,0.003 0.0755,-0.0367 0.19887,-0.10461 z"
       id="path4263"
       inkscape:connector-curvature="0" />
    <path
       style="fill:#c83737;fill-opacity:1"
       d="m 316.85614,619.1285 -0.0289,-0.0253 0,-1.62924 c 0,-0.89607 0.002,-1.62923 0.005,-1.62923 0.003,0 0.0367,0.0126 0.076,0.0281 0.75137,0.29544 1.39394,0.46378 1.91646,0.50208 0.0958,0.007 0.33912,0.007 0.41708,1.7e-4 0.082,-0.007 0.16107,-0.0175 0.15815,-0.0204 -0.001,-0.001 -0.0344,0.002 -0.0734,0.007 -0.0973,0.0126 -0.3472,0.0171 -0.4771,0.009 -0.414,-0.027 -0.89286,-0.13371 -1.45275,-0.32362 -0.13818,-0.0469 -0.41008,-0.14701 -0.51376,-0.18921 l -0.0525,-0.0214 -0.001,-1.95934 -0.001,-1.95935 4.96743,0 c 3.00837,0 4.96536,0.002 4.96218,0.005 -0.028,0.027 -2.12687,1.36392 -3.0795,1.96155 -0.18078,0.11341 -0.37593,0.23602 -0.43366,0.27246 -0.0577,0.0364 -0.12912,0.0809 -0.15864,0.0988 -0.0512,0.031 -0.0666,0.0431 -0.0549,0.0431 0.006,0 0.6701,-0.41477 1.18309,-0.73846 0.74667,-0.47113 1.60782,-1.01989 2.35523,-1.50087 l 0.22009,-0.14164 0.91771,0 c 0.79085,0 0.91659,0.001 0.90962,0.008 -0.01,0.009 -0.16781,0.11983 -0.59366,0.41473 -2.4917,1.72543 -4.97584,3.31196 -7.42996,4.74524 -0.15202,0.0888 -0.31866,0.18574 -0.37031,0.21544 -0.0517,0.0297 -0.0966,0.0574 -0.0999,0.0615 -0.0139,0.0172 -1.01383,0.58382 -1.69268,0.95913 -0.55892,0.30901 -1.52925,0.83295 -1.54261,0.83295 -8.9e-4,0 -0.0146,-0.0114 -0.0305,-0.0253 z m 2.56301,-2.77929 c -0.004,-0.002 -0.009,-0.001 -0.0106,4.4e-4 -0.002,0.002 0.001,0.003 0.007,0.003 0.006,-2.7e-4 0.008,-0.002 0.003,-0.003 l 0,0 z m 0.4602,-0.15637 c 0.002,-0.003 -2.8e-4,-0.004 -0.005,-0.002 -0.01,0.004 -0.0113,0.008 -0.003,0.008 0.003,0 0.007,-0.002 0.009,-0.005 z m 0.28454,-0.1564 c 0.45081,-0.25687 1.33714,-0.78932 2.15999,-1.29757 0.51227,-0.31641 0.59662,-0.36949 0.59662,-0.37543 0,-0.003 -0.009,3e-5 -0.0207,0.007 -0.0114,0.007 -0.14004,0.0863 -0.28588,0.1764 -0.14584,0.0901 -0.41184,0.25406 -0.5911,0.3643 -0.17926,0.11025 -0.35153,0.21643 -0.38282,0.23596 -0.31116,0.19424 -1.19189,0.71812 -1.56172,0.92896 -0.0911,0.052 -0.16946,0.0971 -0.17402,0.10036 -0.0218,0.0155 0.13902,-0.0712 0.25964,-0.13991 z m 2.80909,-1.702 c 0.006,-0.005 0.008,-0.009 0.004,-0.009 -0.009,-2.3e-4 -0.0343,0.0163 -0.0343,0.0227 0,0.006 0.0124,-1.9e-4 0.0304,-0.0141 z"
       id="path4265"
       inkscape:connector-curvature="0" />
    <path
       style="fill:#c83737;fill-opacity:1"
       d=""
       id="path4267"
       inkscape:connector-curvature="0" />
    <path
       style="fill:#c83737;fill-opacity:1"
       d="m 316.85614,619.1285 -0.0289,-0.0253 0,-1.62984 0,-1.62983 0.0152,0.003 0.0152,0.003 -0.0152,-0.008 -0.0152,-0.008 0,-1.95818 0,-1.95818 4.96632,0 c 2.73148,0 4.96632,0.001 4.96632,0.002 0,0.003 -3.5e-4,0.003 -0.35908,0.23411 -0.67657,0.43555 -1.79495,1.14702 -2.50249,1.59199 -0.20244,0.12732 -0.71602,0.44963 -0.81653,0.51245 -0.0313,0.0196 -0.0557,0.0369 -0.0541,0.0384 0.009,0.009 1.96722,-1.22706 3.39452,-2.14394 l 0.36664,-0.23552 0.91776,2e-4 0.91775,2e-4 -0.0166,0.0136 c -0.0353,0.0289 -0.76327,0.53376 -1.19048,0.82556 -2.3713,1.61969 -4.58152,3.01976 -6.93296,4.39171 -0.19597,0.11434 -0.36198,0.21275 -0.36891,0.21869 -0.0229,0.0196 -0.8419,0.48501 -1.42226,0.80816 -0.63295,0.35243 -1.78891,0.97869 -1.80647,0.97869 -8.9e-4,0 -0.0146,-0.0114 -0.0305,-0.0253 z m 2.15594,-2.75358 c -0.10026,-0.002 -0.21266,-0.007 -0.24977,-0.0106 -0.0371,-0.004 -0.0707,-0.006 -0.0746,-0.004 -0.004,0.001 0.0289,0.005 0.073,0.009 0.044,0.004 0.0888,0.007 0.0994,0.008 0.0106,9.9e-4 0.0902,0.002 0.17678,0.002 l 0.15744,-10e-5 -0.1823,-0.004 z m 0.2388,-0.004 c -0.0115,-0.001 -0.0289,-0.001 -0.0387,4e-5 -0.01,0.001 -4.3e-4,0.002 0.0208,0.002 0.0213,-2e-5 0.0293,-0.001 0.0178,-0.002 l 0,0 z m 0.0637,-0.005 c -0.007,-0.001 -0.0192,-0.001 -0.0276,-8e-5 -0.008,0.001 -0.003,0.002 0.0123,0.002 0.0152,4e-5 0.0221,-10e-4 0.0153,-0.002 l 0,0 z m 0.0414,-0.005 c -0.005,-0.001 -0.014,-0.001 -0.0193,0 -0.005,0.001 -9.6e-4,0.003 0.01,0.003 0.0106,0 0.015,-0.001 0.01,-0.003 z m -0.74992,-0.0133 c -0.041,-0.006 -0.0783,-0.01 -0.0829,-0.009 -0.0112,0.002 0.10754,0.0191 0.13535,0.0191 0.0122,3e-5 -0.0115,-0.005 -0.0525,-0.0104 z m 0.78296,0.008 c -0.005,-0.001 -0.0128,-0.001 -0.0166,2.1e-4 -0.004,0.002 6.6e-4,0.003 0.01,0.003 0.009,-1.1e-4 0.0122,-0.001 0.007,-0.003 l 0,0 z m -0.94593,-0.0325 c -0.0395,-0.007 -0.0755,-0.0125 -0.0801,-0.0117 -0.0107,0.002 0.1136,0.0248 0.13534,0.0248 0.009,2e-5 -0.0157,-0.006 -0.0552,-0.0131 z m -0.1518,-0.0278 c -0.0349,-0.007 -0.0659,-0.0125 -0.0689,-0.0115 -0.007,0.002 0.10002,0.0247 0.11854,0.0247 0.008,3e-5 -0.0147,-0.006 -0.0496,-0.0132 z m -0.0885,-0.0187 c -0.008,-0.002 -0.0188,-0.004 -0.0249,-0.004 -0.009,0 -0.008,9.2e-4 0.003,0.004 0.008,0.002 0.0188,0.004 0.0249,0.004 0.009,0 0.008,-9.2e-4 -0.003,-0.004 z m -0.0635,-0.0142 c -0.0152,-0.004 -0.0314,-0.007 -0.0359,-0.007 -0.0114,6e-4 0.0387,0.0148 0.0525,0.0149 0.006,3e-5 -0.001,-0.003 -0.0166,-0.008 z m -0.0497,-0.0107 c -0.003,-0.001 -0.0627,-0.0169 -0.13258,-0.0351 -0.0699,-0.0182 -0.1743,-0.0473 -0.23202,-0.0645 -0.11443,-0.0342 -0.13889,-0.0405 -0.10497,-0.0272 0.0562,0.022 0.4416,0.12905 0.46404,0.12889 0.006,-5e-5 0.009,-9.6e-4 0.006,-0.002 z m 1.86444,-0.0996 c 0,-0.002 -0.01,0.002 -0.0221,0.009 -0.0122,0.006 -0.0221,0.0125 -0.0221,0.014 0,0.002 0.01,-0.002 0.0221,-0.009 0.0122,-0.006 0.0221,-0.0125 0.0221,-0.014 z m 0.2044,-0.11188 c 0.26596,-0.15053 0.82085,-0.48066 1.46117,-0.86931 0.52984,-0.3216 0.55292,-0.33612 0.53418,-0.33612 -0.002,0 -0.12612,0.0749 -0.27484,0.16649 -0.64776,0.39886 -1.251,0.7599 -1.73709,1.03964 -0.0927,0.0533 -0.17221,0.0997 -0.17677,0.10306 -0.0153,0.0112 0.0903,-0.0454 0.19335,-0.10376 z m -2.70653,0.0262 c -0.0803,-0.0271 -0.14697,-0.0482 -0.14812,-0.0471 -0.003,0.003 0.27501,0.0963 0.28586,0.0963 0.005,0 -0.0574,-0.0221 -0.13774,-0.0492 z m -0.15505,-0.0516 c 0,-0.003 -0.0678,-0.0256 -0.0703,-0.0231 -0.001,0.001 0.0123,0.007 0.03,0.0133 0.0341,0.0119 0.0404,0.0134 0.0404,0.01 z m -0.0773,-0.0276 c 0,-0.003 -0.0513,-0.0202 -0.0538,-0.0177 -0.001,0.001 0.009,0.006 0.0217,0.0106 0.0258,0.009 0.0321,0.0105 0.0321,0.007 z m -0.0614,-0.0223 c -0.005,-0.005 -0.0948,-0.0365 -0.097,-0.0344 -0.001,0.001 0.0184,0.01 0.0436,0.0191 0.0438,0.0163 0.0587,0.0205 0.0534,0.0153 z m -0.10988,-0.0417 c -0.005,-0.003 -0.0108,-0.005 -0.0138,-0.005 -0.003,0 -0.002,0.002 0.003,0.005 0.005,0.003 0.0108,0.005 0.0138,0.005 0.003,0 0.002,-0.002 -0.003,-0.005 z m -0.0276,-0.0106 c -0.005,-0.003 -0.0145,-0.006 -0.0221,-0.008 -0.0115,-0.003 -0.011,-0.002 0.003,0.005 0.0177,0.009 0.0332,0.0113 0.0193,0.003 z m -0.0442,-0.0171 c -0.005,-0.003 -0.0108,-0.005 -0.0138,-0.005 -0.003,0 -0.002,0.002 0.003,0.005 0.005,0.003 0.0108,0.005 0.0138,0.005 0.003,0 0.002,-0.002 -0.003,-0.005 z m -0.0415,-0.0162 c -0.0257,-0.0114 -0.0509,-0.0197 -0.0469,-0.0154 0.004,0.004 0.0569,0.0254 0.0635,0.0253 0.003,-5e-5 -0.004,-0.005 -0.0166,-0.01 z m -0.058,-0.0225 c -0.005,-0.003 -0.0108,-0.005 -0.0138,-0.005 -0.003,0 -0.002,0.002 0.003,0.005 0.005,0.003 0.0108,0.005 0.0138,0.005 0.003,0 0.002,-0.002 -0.003,-0.005 z m 5.3654,-1.06696 c 0.14981,-0.092 0.5832,-0.36133 0.6312,-0.39229 0.0469,-0.0303 0.059,-0.0417 0.026,-0.0246 -0.036,0.0187 -0.73326,0.45189 -0.73491,0.45659 -0.003,0.009 0.003,0.006 0.0777,-0.0397 z m 0.72787,-0.45221 c 0.009,-0.007 0.011,-0.0108 0.006,-0.0108 -0.005,0 -0.0145,0.005 -0.0221,0.0108 -0.009,0.007 -0.011,0.0108 -0.006,0.0108 0.005,0 0.0145,-0.005 0.0221,-0.0108 z"
       id="path4269"
       inkscape:connector-curvature="0" />
    <path
       style="fill:#c83737;fill-opacity:1"
       d="m 316.85614,619.1285 -0.0289,-0.0253 0,-1.62984 0,-1.62983 0.0152,0.003 0.0152,0.003 -0.0152,-0.008 -0.0152,-0.008 0,-1.95818 0,-1.95818 4.96751,0 c 4.23763,0 4.96631,0.001 4.95941,0.008 -0.0138,0.0131 -0.79446,0.51361 -1.6267,1.04296 -0.6858,0.43622 -1.09056,0.69179 -1.77882,1.12318 -0.13976,0.0876 -0.26977,0.16911 -0.2889,0.18112 -0.0191,0.012 -0.0336,0.023 -0.0322,0.0244 0.009,0.009 2.02219,-1.26267 3.48808,-2.20442 l 0.27223,-0.1749 0.9172,0 c 0.60692,0 0.91604,0.002 0.9138,0.005 -0.006,0.009 -0.64709,0.4548 -1.1489,0.79827 -2.36018,1.61549 -4.64303,3.0619 -7.01876,4.44705 -0.16559,0.0965 -0.31226,0.18362 -0.32593,0.1935 -0.0519,0.0375 -0.98529,0.56665 -1.6048,0.90978 -0.63253,0.35035 -1.61786,0.8827 -1.63377,0.8827 -8.8e-4,0 -0.0146,-0.0114 -0.0305,-0.0253 z m 2.23434,-2.75202 c -0.0389,-9.5e-4 -0.10106,-9.5e-4 -0.13811,0 -0.037,9.6e-4 -0.005,0.002 0.0708,0.002 0.076,0 0.10627,-7.8e-4 0.0674,-0.002 l 0,0 z m -0.2317,-0.005 c -0.0114,-0.001 -0.03,-0.001 -0.0414,0 -0.0114,0.001 -0.002,0.002 0.0207,0.002 0.0228,0 0.0321,-9.7e-4 0.0207,-0.002 z m 0.38388,1.1e-4 c -0.007,-0.001 -0.0168,-0.001 -0.0221,1.2e-4 -0.005,0.001 3.4e-4,0.002 0.0125,0.002 0.0122,-6e-5 0.0165,-0.001 0.01,-0.003 l 0,0 z m -0.46122,-0.006 c -0.008,-0.001 -0.022,-0.001 -0.0304,0 -0.008,0.001 -0.002,0.002 0.0152,0.002 0.0167,0 0.0236,-0.001 0.0152,-0.002 z m 0.5247,1.3e-4 c -0.005,-0.001 -0.0128,-0.001 -0.0166,2e-4 -0.004,0.002 6.6e-4,0.003 0.01,0.003 0.009,-1.1e-4 0.0122,-0.001 0.007,-0.003 l 0,0 z m -0.58829,-0.006 c -0.007,-0.001 -0.0168,-0.001 -0.0221,1.1e-4 -0.005,0.001 3.4e-4,0.002 0.0125,0.002 0.0121,-6e-5 0.0165,-0.001 0.01,-0.003 l 0,0 z m 0.63535,2.5e-4 c -0.004,-0.002 -0.01,-0.002 -0.0138,0 -0.004,0.002 -6.9e-4,0.003 0.007,0.003 0.008,0 0.0107,-0.001 0.007,-0.003 z m -0.69605,-0.006 c -0.004,-0.002 -0.01,-0.002 -0.0138,0 -0.004,0.002 -6.9e-4,0.003 0.007,0.003 0.008,0 0.0107,-0.001 0.007,-0.003 z m 0.72886,-1.1e-4 c -0.004,-0.002 -0.009,-0.001 -0.0106,4.3e-4 -0.002,0.002 0.001,0.003 0.007,0.003 0.006,-2.6e-4 0.008,-0.002 0.003,-0.003 l 0,0 z m -0.76477,-0.006 c -0.005,-0.001 -0.014,-0.001 -0.0193,0 -0.005,0.001 -9.6e-4,0.003 0.01,0.003 0.0106,0 0.015,-0.001 0.01,-0.003 z m -0.0443,-0.006 c -0.005,-0.001 -0.0128,-0.001 -0.0166,2.1e-4 -0.004,0.002 6.5e-4,0.003 0.01,0.003 0.009,-1.1e-4 0.0122,-0.001 0.007,-0.003 l 0,0 z m -0.0358,-0.005 c -0.004,-0.002 -0.01,-0.002 -0.0138,0 -0.004,0.002 -6.9e-4,0.003 0.007,0.003 0.008,0 0.0107,-0.001 0.007,-0.003 z m -0.0442,-0.006 c -0.004,-0.002 -0.01,-0.002 -0.0138,0 -0.004,0.002 -6.9e-4,0.003 0.007,0.003 0.008,0 0.0107,-0.001 0.007,-0.003 z m -0.0276,-0.006 c -0.004,-0.002 -0.01,-0.002 -0.0138,0 -0.004,0.002 -6.9e-4,0.003 0.007,0.003 0.008,0 0.0107,-0.001 0.007,-0.003 z m -0.0331,-0.006 c -0.004,-0.002 -0.01,-0.002 -0.0138,0 -0.004,0.002 -7e-4,0.003 0.007,0.003 0.008,0 0.0107,-0.001 0.007,-0.003 z m -0.0305,-0.006 c -0.005,-0.001 -0.0128,-0.001 -0.0166,2.1e-4 -0.004,0.002 6.6e-4,0.003 0.01,0.003 0.009,-1.1e-4 0.0122,-0.001 0.007,-0.003 l 0,0 z m -0.0306,-0.005 c -0.004,-0.002 -0.009,-0.001 -0.0106,4.4e-4 -0.002,0.002 0.001,0.003 0.007,0.003 0.006,-2.7e-4 0.008,-0.002 0.003,-0.003 l 0,0 z m -0.0387,-0.006 c -0.004,-0.002 -0.009,-0.001 -0.0106,4.3e-4 -0.002,0.002 0.001,0.003 0.007,0.003 0.006,-2.6e-4 0.008,-0.002 0.003,-0.003 l 0,0 z m -0.0217,-0.005 c -0.004,-0.002 -0.01,-0.002 -0.0138,0 -0.004,0.002 -6.9e-4,0.003 0.007,0.003 0.008,0 0.0107,-0.001 0.007,-0.003 z m -0.0276,-0.006 c -0.004,-0.002 -0.01,-0.002 -0.0138,0 -0.004,0.002 -6.9e-4,0.003 0.007,0.003 0.008,0 0.0107,-0.001 0.007,-0.003 z m -0.028,-0.006 c -0.004,-0.002 -0.009,-0.001 -0.0106,4.4e-4 -0.002,0.002 0.001,0.003 0.007,0.003 0.006,-2.6e-4 0.008,-0.002 0.003,-0.003 l 0,0 z m -0.0552,-0.011 c -0.004,-0.002 -0.009,-0.001 -0.0106,4.3e-4 -0.002,0.002 0.001,0.003 0.007,0.003 0.006,-2.6e-4 0.008,-0.002 0.003,-0.003 l 0,0 z m -0.0535,-0.0128 c -0.006,-0.003 -0.016,-0.005 -0.0221,-0.005 -0.009,1.3e-4 -0.008,0.001 0.003,0.005 0.0189,0.006 0.0334,0.006 0.0193,0 z m -0.10496,-0.0252 c -0.0273,-0.007 -0.0522,-0.0124 -0.0552,-0.0115 -0.007,0.002 0.0788,0.0246 0.0938,0.0246 0.006,2e-5 -0.0113,-0.006 -0.0387,-0.0131 z m -0.068,-0.0172 c -0.004,-0.002 -0.009,-0.001 -0.0106,4.4e-4 -0.002,0.002 0.001,0.003 0.007,0.003 0.006,-2.6e-4 0.008,-0.002 0.003,-0.003 l 0,0 z m -0.0221,-0.006 c -0.004,-0.002 -0.009,-0.001 -0.0106,4.3e-4 -0.002,0.002 0.001,0.003 0.007,0.003 0.006,-2.7e-4 0.008,-0.002 0.003,-0.003 l 0,0 z m -0.0259,-0.007 c -0.006,-0.002 -0.0198,-0.006 -0.0304,-0.008 -0.0191,-0.003 -0.019,-0.003 0.003,0.004 0.0237,0.008 0.0465,0.011 0.0276,0.003 z m -0.0608,-0.0166 c -0.006,-0.002 -0.0197,-0.006 -0.0304,-0.008 -0.0191,-0.003 -0.019,-0.003 0.003,0.004 0.0237,0.008 0.0465,0.011 0.0276,0.003 z m -0.0608,-0.0169 c -0.006,-0.003 -0.0148,-0.005 -0.0193,-0.005 -0.005,0 -0.004,0.002 0.003,0.005 0.006,0.003 0.0148,0.005 0.0193,0.005 0.005,0 0.004,-0.002 -0.003,-0.005 z m 2.13513,-0.0197 c 0,-0.002 -0.005,-10e-5 -0.0111,0.003 -0.006,0.003 -0.0111,0.007 -0.0111,0.009 0,0.002 0.005,10e-5 0.0111,-0.003 0.006,-0.003 0.0111,-0.007 0.0111,-0.009 z m -2.18657,0.005 c -0.004,-0.002 -0.009,-0.001 -0.0106,4.3e-4 -0.002,0.002 0.001,0.003 0.007,0.003 0.006,-2.6e-4 0.008,-0.002 0.003,-0.003 l 0,0 z m -0.0425,-0.0128 c -0.006,-0.003 -0.0148,-0.005 -0.0193,-0.005 -0.005,0 -0.004,0.002 0.003,0.005 0.006,0.003 0.0148,0.005 0.0193,0.005 0.005,0 0.004,-0.002 -0.003,-0.005 z m 2.49421,-0.13836 c 0.28247,-0.161 1.17628,-0.69355 1.19324,-0.71096 0.0115,-0.0118 0.0344,-0.0252 -0.36737,0.21517 -0.40328,0.24132 -0.59505,0.35445 -0.86731,0.51167 -0.10026,0.0579 -0.18603,0.10799 -0.19058,0.11133 -0.0173,0.0127 0.0858,-0.0439 0.23202,-0.12721 z m -2.54946,0.12178 c -0.006,-0.003 -0.0148,-0.005 -0.0193,-0.005 -0.005,0 -0.004,0.002 0.003,0.005 0.006,0.003 0.0148,0.005 0.0193,0.005 0.005,0 0.004,-0.002 -0.003,-0.005 z m -0.30659,-0.0989 c -0.005,-0.003 -0.0145,-0.006 -0.0221,-0.008 -0.0115,-0.003 -0.0111,-0.002 0.003,0.005 0.0177,0.009 0.0332,0.0113 0.0193,0.003 z m -0.0939,-0.0332 c -0.005,-0.003 -0.0145,-0.006 -0.0221,-0.008 -0.0115,-0.003 -0.0111,-0.002 0.003,0.005 0.0177,0.009 0.0332,0.0113 0.0193,0.003 z m -0.0608,-0.0221 c -0.005,-0.003 -0.0145,-0.006 -0.0221,-0.008 -0.0115,-0.003 -0.011,-0.002 0.003,0.005 0.0177,0.009 0.0332,0.0113 0.0193,0.003 z m -0.0608,-0.0226 c -0.005,-0.003 -0.0108,-0.005 -0.0138,-0.005 -0.003,0 -0.002,0.002 0.003,0.005 0.005,0.003 0.0108,0.005 0.0138,0.005 0.003,0 0.002,-0.002 -0.003,-0.005 z m -0.0884,-0.0331 c -0.005,-0.003 -0.0108,-0.005 -0.0138,-0.005 -0.003,0 -0.002,0.002 0.003,0.005 0.005,0.003 0.0108,0.005 0.0138,0.005 0.003,0 0.002,-0.002 -0.003,-0.005 z m -0.0387,-0.0132 c 0,-0.001 -0.004,-0.004 -0.009,-0.005 -0.005,-0.002 -0.007,-9.6e-4 -0.005,0.002 0.003,0.005 0.0138,0.008 0.0138,0.003 z m -0.0331,-0.0144 c -0.005,-0.003 -0.0108,-0.005 -0.0138,-0.005 -0.003,0 -0.002,0.002 0.003,0.005 0.005,0.003 0.0108,0.005 0.0138,0.005 0.003,0 0.002,-0.002 -0.003,-0.005 z m -0.0718,-0.0276 c -0.005,-0.003 -0.0108,-0.005 -0.0138,-0.005 -0.003,0 -0.002,0.002 0.003,0.005 0.005,0.003 0.0108,0.005 0.0138,0.005 0.003,0 0.002,-0.002 -0.003,-0.005 z m -0.0276,-0.011 c -0.005,-0.003 -0.0108,-0.005 -0.0138,-0.005 -0.003,0 -0.002,0.002 0.003,0.005 0.005,0.003 0.0108,0.005 0.0138,0.005 0.003,0 0.002,-0.002 -0.003,-0.005 z m 4.95919,-0.81777 c 0.0996,-0.0609 0.18205,-0.11329 0.18316,-0.11651 0.003,-0.008 -0.004,-0.004 -0.19747,0.11393 -0.14826,0.0906 -0.18213,0.11324 -0.16938,0.11324 0.001,0 0.084,-0.0498 0.18369,-0.11066 z m 0.28026,-0.17169 c 0.0199,-0.0125 0.0362,-0.0248 0.0362,-0.0273 0,-0.005 -0.0755,0.037 -0.0804,0.045 -0.007,0.0106 0.009,0.004 0.0442,-0.0176 z m 0.25125,-0.15512 c 0.0651,-0.0404 0.11936,-0.0766 0.12061,-0.0804 0.001,-0.004 -0.0557,0.029 -0.12652,0.0729 -0.0708,0.0439 -0.12974,0.0826 -0.13091,0.0861 -0.003,0.008 -0.006,0.01 0.13682,-0.0786 z m 0.33725,-0.20917 c 0.1035,-0.0643 0.19373,-0.12171 0.20051,-0.12764 l 0.0123,-0.0108 -0.0138,0.007 c -0.008,0.004 -0.0983,0.0588 -0.20164,0.12244 -0.17341,0.10687 -0.22107,0.13851 -0.19499,0.12943 0.005,-0.002 0.0941,-0.0559 0.1976,-0.12013 z m 0.26059,-0.16307 c 0.009,-0.005 0.0154,-0.0101 0.0138,-0.0117 -0.002,-0.002 -0.0112,0.002 -0.0212,0.009 -0.0213,0.0137 -0.0167,0.0156 0.007,0.003 z"
       id="path4271"
       inkscape:connector-curvature="0" />
    <path
       style="fill:#c83737;fill-opacity:1"
       d="m 328.36696,586.77946 c -0.0205,-0.0608 -0.20732,-0.60427 -0.4151,-1.20776 l -0.37778,-1.09724 0.0532,-0.0644 c 0.0292,-0.0354 0.5357,-0.64041 1.12544,-1.34448 0.58973,-0.70407 2.28985,-2.73439 3.77803,-4.51183 3.97285,-4.74504 4.1492,-4.95552 4.58907,-5.47731 l 0.40284,-0.47785 0.61353,0 0.61353,0 -0.028,0.0304 c -0.0154,0.0167 -0.44006,0.50023 -0.94363,1.07447 -0.50356,0.57425 -1.25153,1.42692 -1.66215,1.89483 l -4.03347,4.59619 c -1.80779,2.06 -3.39753,3.87141 -3.53275,4.02536 -0.20424,0.23251 -0.24462,0.28395 -0.2385,0.30384 0.004,0.0132 0.18518,0.54846 0.4025,1.18955 0.36958,1.09023 0.39361,1.16578 0.3715,1.16799 -0.013,0.001 -0.17152,0.004 -0.35227,0.006 l -0.32863,0.003 -0.0373,-0.11052 z"
       id="path4273"
       inkscape:connector-curvature="0" />
    <path
       style="fill:#c83737;fill-opacity:1"
       d="m 337.60419,572.5429 c 0,-0.0121 0.30328,-0.37417 0.67396,-0.8047 2.03374,-2.36211 3.53531,-3.83266 4.80611,-4.7068 0.40325,-0.27738 1.06248,-0.6695 1.0826,-0.64395 0.005,0.007 -1.20559,1.39827 -2.69093,3.09227 l -2.7006,3.07999 -0.58557,0.003 c -0.32206,0.001 -0.58557,-0.007 -0.58557,-0.0194 z"
       id="path4275"
       inkscape:connector-curvature="0" />
    <path
       style="fill:#c83737;fill-opacity:1"
       d="m 276.26823,611.62576 c 1.68616,-1.35156 3.74073,-2.34554 7.87014,-3.8075 1.23842,-0.43845 3.83158,-1.29617 10.14922,-3.35699 l 4.89922,-1.59813 0.24228,0.19806 c 0.13326,0.10894 0.44162,0.35979 0.68525,0.55744 l 0.44296,0.35938 0.001,0.33778 c 0.001,0.24577 -0.008,0.33177 -0.0342,0.3157 -0.0197,-0.0121 -0.23955,-0.20282 -0.48866,-0.42372 -0.24912,-0.2209 -0.47205,-0.40164 -0.49541,-0.40164 -0.0359,0 -3.42005,1.14273 -13.51146,4.56237 -7.76314,2.63067 -9.78144,3.31254 -9.8031,3.31194 -0.0138,-3.8e-4 0.005,-0.025 0.0423,-0.0547 z"
       id="path4277"
       inkscape:connector-curvature="0" />
    <path
       style="fill:#c83737;fill-opacity:1"
       d="m 268.9715,632.64508 c 0.77177,-0.6004 1.36364,-1.56697 1.80539,-2.94831 0.4076,-1.27457 0.69324,-2.78534 1.20606,-6.37898 0.33919,-2.37696 0.5154,-3.4765 0.73328,-4.57577 0.40505,-2.04354 0.87434,-3.48856 1.50521,-4.63478 0.17798,-0.32338 0.65757,-1.05525 0.67806,-1.03475 0.007,0.007 -0.91957,4.44349 -2.05999,9.85794 l -2.07348,9.84446 -0.9807,0 -0.9807,0 0.16687,-0.12981 z"
       id="path4279"
       inkscape:connector-curvature="0" />
    <path
       style="fill:#c83737;fill-opacity:1"
       d="m 243.96391,625.4318 c -1.98995,-5.86568 -3.60982,-10.67313 -3.59973,-10.68323 0.0324,-0.0324 0.92829,0.90677 1.1797,1.2368 0.88552,1.1625 1.43437,2.39046 1.94465,4.35088 0.78656,3.02186 2.31584,7.82467 3.22451,10.12681 0.54388,1.37794 1.12369,2.30707 1.92087,3.07812 0.82123,0.79432 1.70899,1.28005 2.91079,1.59263 0.9633,0.25054 1.627,0.32828 2.99531,0.35086 1.42066,0.0234 2.94532,-0.0718 4.35448,-0.27209 0.12031,-0.0171 0.52109,-0.074 0.89062,-0.12639 1.92355,-0.27284 4.85474,-0.81953 6.20313,-1.15693 1.12789,-0.28222 1.96571,-0.60732 2.58124,-1.00158 l 0.2375,-0.15212 0.97344,0 c 0.53539,0 0.97369,0.0105 0.974,0.0234 3.1e-4,0.0129 -0.0791,0.40492 -0.17639,0.87118 l -0.17696,0.84774 -0.14391,0.0179 c -0.0792,0.01 -0.3408,0.0476 -0.58142,0.0838 -5.96963,0.89987 -12.43992,1.3637 -20.3125,1.45611 l -1.78125,0.0209 -3.61808,-10.66487 z"
       id="path4281"
       inkscape:connector-curvature="0" />
    <path
       style="fill:#c83737;fill-opacity:1"
       d="m 227.40376,611.45899 c -6.43163,-1.30766 -11.69056,-2.38089 -11.6865,-2.38495 0.006,-0.006 7.57061,0.87862 9.02832,1.05638 7.28595,0.88847 11.48044,1.94334 14.17528,3.56492 0.13369,0.0805 0.22816,0.14513 0.20993,0.14374 -0.0182,-0.001 -5.29539,-1.07243 -11.72703,-2.38009 z"
       id="path4283"
       inkscape:connector-curvature="0" />
    <path
       style="fill:#c83737;fill-opacity:1"
       d="m 198.93314,626.00644 c -2.35861,-0.94693 -4.61911,-1.93449 -6.67187,-2.91478 l -0.5625,-0.26862 -0.009,-0.46964 -0.009,-0.46964 0.11801,0.0494 c 0.92386,0.38671 4.75087,1.97933 7.67361,3.19338 0.2712,0.11266 0.49723,0.19938 0.50228,0.19272 0.0344,-0.0454 2.32048,-2.93538 3.16135,-3.99648 1.61996,-2.04425 3.26107,-4.11684 6.66854,-8.42187 1.74133,-2.2 3.19612,-4.03097 3.23288,-4.06882 l 0.0668,-0.0688 0.85166,0.0998 c 0.46841,0.0549 0.8481,0.10882 0.84375,0.11989 -0.004,0.0111 -2.06967,2.34558 -4.58959,5.1878 -4.64848,5.24302 -8.06012,9.09172 -9.75404,11.00362 -0.51394,0.58007 -0.94397,1.054 -0.95561,1.05316 -0.0117,-8.3e-4 -0.26727,-0.10032 -0.56805,-0.22107 z"
       id="path4285"
       inkscape:connector-curvature="0" />
    <path
       style="fill:#c83737;fill-opacity:1"
       d="m 189.85034,621.91319 c -3.29976,-1.65364 -6.52564,-3.41026 -10.00935,-5.4505 l -0.77673,-0.4549 0.0162,-0.0966 c 0.009,-0.0531 1.15645,-5.18317 2.55016,-11.40005 1.39371,-6.21688 2.53402,-11.31558 2.53402,-11.33045 0,-0.0203 -2.85662,-2.54868 -3.25873,-2.88427 -0.068,-0.0568 -0.0571,-0.0579 0.55561,-0.0586 l 0.625,-6.5e-4 1.29687,1.12471 c 0.71328,0.6186 1.30114,1.14432 1.30636,1.16827 0.005,0.0239 -0.49183,2.53054 -1.10454,5.57021 -1.22052,6.05502 -1.37979,6.86142 -1.60731,8.13797 -0.42598,2.39015 -0.603,3.98328 -0.60395,5.43557 -5.4e-4,0.81611 0.0304,1.24333 0.13595,1.875 0.27349,1.6373 1.00789,2.95284 2.26649,4.06001 1.40752,1.23816 3.37691,2.33093 7.01989,3.8952 l 0.85932,0.36898 0.0181,0.47019 c 0.01,0.2586 0.0147,0.47356 0.0106,0.47768 -0.004,0.004 -0.82936,-0.40437 -1.83386,-0.90777 z"
       id="path4287"
       inkscape:connector-curvature="0" />
    <path
       style="fill:#c83737;fill-opacity:1"
       d="m 176.99204,586.85843 c -2.12052,-1.86022 -5.71712,-5.01616 -7.99244,-7.0132 l -4.13694,-3.63097 -0.48806,0.16757 c -1.5355,0.52721 -10.36184,3.51508 -10.38374,3.51508 -0.0144,0 -0.0262,-0.15319 -0.0262,-0.34041 0,-0.29524 0.007,-0.34324 0.0547,-0.36173 0.0301,-0.0117 2.50807,-0.86553 5.50665,-1.89733 4.38078,-1.50741 5.46272,-1.86929 5.50669,-1.84183 0.0301,0.0188 0.96577,0.82498 2.07928,1.79152 1.11351,0.96654 3.24102,2.81244 4.72781,4.102 1.48678,1.28956 4.38926,3.80715 6.44996,5.59465 l 3.74671,3.25 -0.34058,0.0195 c -0.18732,0.0107 -0.45483,0.0213 -0.59446,0.0234 l -0.25388,0.004 -3.8555,-3.38223 z"
       id="path4289"
       inkscape:connector-curvature="0" />
    <path
       style="fill:#c83737;fill-opacity:1"
       d="m 142.35796,583.13296 c -2.36291,-2.97979 -4.52607,-5.94269 -6.5069,-8.91256 -0.70622,-1.05884 -1.7076,-2.6067 -1.7076,-2.63948 0,-0.006 0.31216,-0.0103 0.69369,-0.0103 0.55367,0 0.69595,0.006 0.70487,0.0291 0.0139,0.0362 1.93701,3.06598 3.18644,5.02006 2.09696,3.2796 2.99554,4.65613 3.11782,4.77613 0.34404,0.33763 1.45335,0.37742 3.26445,0.11709 2.13873,-0.30743 5.17484,-1.07801 8.14423,-2.06706 0.38147,-0.12706 0.69645,-0.22816 0.69995,-0.22466 0.003,0.004 0.01,0.16112 0.0135,0.35026 l 0.007,0.34389 -3.11569,1.05702 c -1.71363,0.58136 -3.50349,1.18877 -3.97747,1.3498 -2.27332,0.77235 -4.06419,1.37964 -4.0685,1.37964 -0.003,0 -0.2078,-0.25605 -0.45597,-0.569 z"
       id="path4291"
       inkscape:connector-curvature="0" />
    <path
       style="fill:#c83737;fill-opacity:1"
       d="m 134.05504,571.43691 c -0.13616,-0.19986 -1.06704,-1.72791 -1.52773,-2.50781 -1.05098,-1.77918 -2.30722,-4.05338 -2.27927,-4.12622 0.0125,-0.0325 14.95686,-16.91464 15.24276,-17.2192 l 0.0896,-0.0954 -1.51579,-4.47508 c -0.83369,-2.4613 -1.51579,-4.48204 -1.51579,-4.49053 0,-0.008 0.16112,-0.0154 0.35805,-0.0154 l 0.35805,0 0.0628,0.21094 c 0.0346,0.11601 0.73112,2.41844 1.54791,5.1165 l 1.48506,4.90556 -0.15132,0.15694 c -0.30445,0.31576 -14.49298,14.85558 -14.83743,15.2048 l -0.35545,0.36037 2.24782,3.55369 2.24782,3.5537 -0.6833,0 -0.6833,0 -0.0905,-0.13281 z"
       id="path4293"
       inkscape:connector-curvature="0" />
    <path
       style="fill:#c83737;fill-opacity:1"
       d="m 124.77508,520.46757 c -5.66956,-1.17364 -10.31071,-2.13562 -10.31367,-2.13773 -0.0187,-0.0133 -0.33494,-2.23047 -0.46812,-3.28185 -0.12408,-0.97947 -0.35514,-3.02848 -0.35514,-3.1493 0,-0.0279 0.0712,-0.0327 0.4811,-0.0327 l 0.48111,0 0.0523,0.25964 c 0.2379,1.18066 0.56339,2.29912 0.87467,3.00554 0.80147,1.81891 2.04164,2.74607 4.62945,3.461 1.00978,0.27898 2.15483,0.50939 4.51885,0.9093 4.74697,0.80302 7.26206,1.45636 9.25335,2.40373 0.40605,0.19318 1.25382,0.66084 1.25382,0.69164 0,0.005 -0.0224,0.007 -0.0497,0.006 -0.0274,-0.001 -4.68845,-0.96211 -10.35801,-2.13575 z"
       id="path4295"
       inkscape:connector-curvature="0" />
    <path
       style="fill:#c83737;fill-opacity:1"
       d="m 142.52438,538.47503 c -0.0627,-0.16353 -4.44259,-13.11934 -4.437,-13.12492 0.0126,-0.0126 0.47914,0.69379 0.66816,1.01158 0.34086,0.5731 0.59351,1.04878 0.88025,1.65729 0.81578,1.73125 1.60284,3.8834 2.61423,7.1484 0.42066,1.35798 1.00596,3.30315 0.9966,3.31207 -0.005,0.005 -0.16729,0.0125 -0.36024,0.0169 -0.27577,0.006 -0.35321,0.002 -0.362,-0.0213 z"
       id="path4297"
       inkscape:connector-curvature="0" />
    <path
       style="fill:#c83737;fill-opacity:1"
       d="m 113.58241,511.31602 c -0.29602,-3.13087 -0.50541,-6.58526 -0.61278,-10.10937 -0.0356,-1.169 -0.0991,-5.6771 -0.0802,-5.696 0.0226,-0.0226 21.0018,-6.75717 21.02518,-6.74935 0.0343,0.0115 -0.44496,0.39158 -0.78888,0.62565 -0.87516,0.59563 -1.88663,1.07372 -3.71875,1.75775 -0.66148,0.24697 -2.42387,0.83225 -4.46875,1.48406 -3.39356,1.08171 -4.81147,1.57803 -6.14063,2.14947 -3.19856,1.37512 -4.68704,2.79378 -5.26753,5.02045 -0.35464,1.36035 -0.36907,3.23375 -0.0442,5.73436 0.18037,1.38825 0.70022,4.37482 1.0582,6.0795 0.0252,0.12012 0.0433,0.22101 0.0401,0.2242 -0.003,0.003 -0.21827,0.0104 -0.47795,0.016 l -0.47214,0.0102 -0.0517,-0.54688 z"
       id="path4299"
       inkscape:connector-curvature="0" />
    <path
       style="fill:#c83737;fill-opacity:1"
       d="m 135.21896,487.06661 c 0.009,-0.0494 0.9361,-4.61402 2.05922,-10.14356 l 2.04204,-10.0537 0.01,0.53734 c 0.0436,2.34559 -0.47516,5.7805 -1.82275,12.0686 -0.92865,4.33325 -1.3586,5.85801 -2.03809,7.2278 -0.20992,0.42317 -0.28176,0.52746 -0.25042,0.36352 z"
       id="path4301"
       inkscape:connector-curvature="0" />
    <path
       style="fill:#c83737;fill-opacity:1"
       d="m 385.83963,483.22611 c -0.11227,-0.6765 -0.27807,-1.24719 -0.49413,-1.70076 -0.26377,-0.55375 -0.55647,-0.93185 -0.99979,-1.2915 -0.66321,-0.53804 -1.59783,-0.95149 -3.19573,-1.41372 -2.99599,-0.86666 -10.45118,-2.63246 -13.54245,-3.2076 -0.78799,-0.14661 -0.93951,-0.1843 -1.25155,-0.31137 -0.37557,-0.15294 -0.92094,-0.48195 -1.1822,-0.7132 -0.0721,-0.0638 -0.0736,-0.0677 -0.0221,-0.0571 1.14274,0.23435 20.97349,4.41549 21.00463,4.42865 0.0521,0.022 0.0432,-0.0282 0.25389,1.42716 0.12917,0.89211 0.39662,2.96224 0.39662,3.06989 l 0,0.0551 -0.45885,0.006 -0.45885,0.006 -0.0495,-0.29831 z"
       id="path4303"
       inkscape:connector-curvature="0" />
    <path
       style="fill:#c83737;fill-opacity:1"
       d="m 364.84328,437.77274 c 0.002,-0.004 1.13296,-1.32576 2.51249,-2.93769 1.37952,-1.61193 2.51144,-2.93483 2.51537,-2.93977 0.006,-0.008 -0.0616,-0.11126 -0.50486,-0.77048 -0.2816,-0.41882 -0.54266,-0.80686 -0.58011,-0.86231 l -0.0681,-0.10082 0.0388,0 0.0388,0 0.22256,0.3356 c 0.57003,0.85954 0.89279,1.36217 0.89279,1.39031 0,0.0467 -1.56593,1.90731 -4.05465,4.81759 -0.42351,0.49525 -0.80346,0.93961 -0.84433,0.98747 l -0.0743,0.087 -0.0493,0 c -0.0381,0 -0.0484,-0.002 -0.0451,-0.007 z"
       id="path4305"
       inkscape:connector-curvature="0" />
    <path
       style="fill:#c83737;fill-opacity:1"
       d="m 366.05501,437.77717 c 0,-0.002 0.17096,-0.19746 0.37991,-0.43525 1.72068,-1.95817 3.27992,-3.74824 3.78745,-4.34813 0.25403,-0.30026 0.28553,-0.34475 0.31387,-0.44325 0.0107,-0.0372 0.0126,-0.0564 0.0123,-0.12668 -2.3e-4,-0.0703 -0.003,-0.0929 -0.0156,-0.14915 -0.0584,-0.25296 -0.22531,-0.61308 -0.62079,-1.33964 -0.11939,-0.21933 -0.41575,-0.75295 -0.42171,-0.75931 -0.0107,-0.0115 -0.003,-0.0141 0.0407,-0.014 l 0.0456,1.1e-4 0.16113,0.28853 c 0.35871,0.64236 0.69283,1.25432 0.97945,1.79389 0.0525,0.0987 0.1022,0.19197 0.11056,0.20716 l 0.0152,0.0276 -2.34795,2.64888 -2.34795,2.64889 -0.0461,0.002 c -0.0253,8.8e-4 -0.0461,2.9e-4 -0.0461,-0.001 z"
       id="path4307"
       inkscape:connector-curvature="0" />
    <path
       style="fill:#c83737;fill-opacity:1"
       d="m 366.2259,426.45628 c -0.005,-0.007 -0.36856,-0.54707 -0.80759,-1.2002 -1.11697,-1.66164 -1.55329,-2.30829 -2.11251,-3.13086 -0.26432,-0.38878 -0.66892,-0.98197 -0.69485,-1.01871 l -0.0173,-0.0246 0.0345,0.001 0.0345,0.001 0.06,0.0879 c 1.13844,1.66724 2.21695,3.25538 3.37165,4.96484 0.11537,0.1708 0.21286,0.31538 0.21665,0.32129 l 0.007,0.0107 -0.0413,0 -0.0413,0 -0.009,-0.0127 z"
       id="path4309"
       inkscape:connector-curvature="0" />
    <path
       style="fill:#c83737;fill-opacity:1"
       d="m 367.23306,426.37411 c -0.59573,-0.96437 -1.5939,-2.50392 -2.39388,-3.69225 -0.3397,-0.50461 -0.88964,-1.3095 -1.08561,-1.58887 l -0.008,-0.0107 0.0559,1.5e-4 0.0559,1.5e-4 0.0449,0.0652 c 0.0247,0.0359 0.10449,0.15138 0.1773,0.25669 1.09779,1.58775 2.29605,3.41532 3.21066,4.89687 l 0.0183,0.0296 0,0.069 c 0,0.069 0,0.069 -0.009,0.0689 -0.007,-1.1e-4 -0.0192,-0.017 -0.0672,-0.0947 z"
       id="path4311"
       inkscape:connector-curvature="0" />
    <path
       style="fill:#c83737;fill-opacity:1"
       d="m 336.76082,421.53886 0.002,-0.0482 2.53906,-0.85408 c 5.19845,-1.74863 7.15265,-2.39735 9.35938,-3.10697 2.13432,-0.68634 3.81967,-1.19377 5.12891,-1.54425 0.44836,-0.12002 1.35764,-0.34363 1.39734,-0.34363 0.005,0 0.009,0.0149 0.009,0.0385 0,0.03 -0.003,0.0394 -0.0137,0.0426 -0.008,0.002 -0.12089,0.0291 -0.25195,0.0597 -2.02364,0.47271 -4.70062,1.25095 -7.40234,2.15197 -0.31368,0.10461 -2.86189,0.96923 -5.66271,1.92138 -2.80082,0.95214 -5.09581,1.73117 -5.09998,1.73117 -0.004,0 -0.007,-0.0206 -0.005,-0.0482 z"
       id="path4313"
       inkscape:connector-curvature="0" />
    <path
       style="fill:#c83737;fill-opacity:1"
       d="m 336.76074,420.89399 0.002,-0.0284 8.91797,-3.02565 c 4.90488,-1.66411 9.05244,-3.07134 9.2168,-3.12718 l 0.29883,-0.10153 0,0.0407 0,0.0407 -0.24415,0.081 c -1.1467,0.38057 -3.84005,1.29028 -9.74023,3.28988 -4.76761,1.61576 -6.29345,2.13196 -7.78366,2.63326 l -0.67037,0.22551 0.002,-0.0284 z"
       id="path4315"
       inkscape:connector-curvature="0" />
    <path
       style="fill:#c83737;fill-opacity:1"
       d="m 362.475,420.90732 c -0.016,-0.0231 -0.13088,-0.19053 -0.25541,-0.37207 -1.59059,-2.31876 -2.93329,-4.21881 -3.4597,-4.8958 -0.0314,-0.0404 -0.0572,-0.0743 -0.0572,-0.0753 0,-9.9e-4 0.0178,-0.001 0.0396,-6.9e-4 l 0.0396,0.001 0.5641,0.77343 c 0.69383,0.95133 0.72042,0.9882 1.0063,1.39527 0.44747,0.63718 1.46266,2.10913 2.20662,3.19946 l 0.0113,0.0166 -0.0332,0 -0.0331,0 -0.029,-0.042 z"
       id="path4317"
       inkscape:connector-curvature="0" />
    <path
       style="fill:#c83737;fill-opacity:1"
       d="m 362.64608,419.51987 c -0.82773,-1.15758 -1.63714,-2.25337 -2.45854,-3.32837 -0.13827,-0.18095 -0.4444,-0.57781 -0.47232,-0.6123 l -0.0134,-0.0166 0.051,0 0.051,0 0.2065,0.26856 c 0.95117,1.23696 1.89444,2.50556 2.73473,3.67789 l 0.075,0.10464 -0.001,0.0733 -0.001,0.0733 -0.17187,-0.24037 z"
       id="path4319"
       inkscape:connector-curvature="0" />
    <path
       style="fill:#c83737;fill-opacity:1"
       d="m 358.64425,415.49257 c -0.0826,-0.10137 -0.1168,-0.13614 -0.15309,-0.15548 -0.0673,-0.0358 -0.18069,-0.059 -0.32323,-0.066 l -0.0787,-0.004 0.19335,-0.009 c 0.10634,-0.005 0.20995,-0.01 0.23024,-0.01 l 0.0369,-4.4e-4 0.10978,0.15053 c 0.0604,0.0828 0.11167,0.15365 0.11397,0.15745 0.003,0.005 -0.005,0.007 -0.0341,0.007 l -0.0383,0 -0.0569,-0.0698 z"
       id="path4321"
       inkscape:connector-curvature="0" />
    <path
       style="fill:#c83737;fill-opacity:1"
       d=""
       id="path4323"
       inkscape:connector-curvature="0" />
    <path
       style="fill:#c83737;fill-opacity:1"
       d="m 359.5808,415.40642 c -0.6775,-0.86786 -1.3127,-1.62402 -1.40685,-1.67472 l -0.0189,-0.0102 -0.0771,0.0232 c -0.24141,0.0727 -0.83123,0.2657 -2.00287,0.65531 -0.47886,0.15924 -0.87226,0.28953 -0.87422,0.28953 -0.002,0 -0.004,-0.018 -0.003,-0.04 l 8e-5,-0.0401 1.52204,-0.51605 c 0.8906,-0.30196 1.52391,-0.51396 1.52655,-0.511 0.008,0.009 0.41542,0.52212 0.5917,0.74532 0.34001,0.43049 0.94643,1.20734 0.95627,1.225 0.005,0.009 0.001,0.01 -0.0431,0.01 l -0.0485,-1.5e-4 -0.12153,-0.15568 0,0 z"
       id="path4325"
       inkscape:connector-curvature="0" />
    <path
       style="fill:#c83737;fill-opacity:1"
       d="m 355.1954,415.67989 8.7e-4,-0.0426 0.0461,-0.0102 c 0.6668,-0.14735 1.29483,-0.25191 1.79729,-0.29922 0.18569,-0.0175 0.51492,-0.0396 0.5196,-0.0349 0.001,0.001 -0.0295,0.005 -0.0682,0.009 -0.36897,0.0363 -0.99078,0.14092 -1.63089,0.27437 -0.17779,0.0371 -0.63718,0.13741 -0.65738,0.14359 -0.007,0.002 -0.008,-0.005 -0.007,-0.0401 z"
       id="path4327"
       inkscape:connector-curvature="0" />
    <path
       style="fill:#c83737;fill-opacity:1"
       d="m 362.81545,441.48987 -0.0329,-0.002 0.29499,-0.33355 c 0.48446,-0.54776 1.53769,-1.74205 2.2772,-2.58219 l 0.69336,-0.7877 0.0466,-0.002 c 0.0417,-0.002 0.0455,-6.1e-4 0.036,0.0104 -0.063,0.0733 -3.25339,3.67264 -3.26566,3.68421 -0.0124,0.0117 -0.025,0.0151 -0.0496,0.0132 z"
       id="path4329"
       inkscape:connector-curvature="0" />
    <path
       style="fill:#c83737;fill-opacity:1"
       d="m 361.72922,441.41993 c 0.51665,-0.61235 3.05397,-3.58338 3.09481,-3.62381 0.0143,-0.0141 0.0226,-0.0157 0.0603,-0.0117 l 0.0437,0.005 -0.51135,0.60156 c -0.89406,1.0518 -1.71015,2.02023 -2.34554,2.78339 l -0.26164,0.31426 -0.069,0 -0.069,0 0.0577,-0.0683 z"
       id="path4331"
       inkscape:connector-curvature="0" />
    <path
       style="fill:#c83737;fill-opacity:1"
       d="m 369.41935,430.0486 c -0.42062,-0.74564 -0.92542,-1.60943 -1.37768,-2.35743 l -0.0803,-0.13281 0.0474,-0.001 c 0.026,-6.1e-4 0.0487,2.7e-4 0.0504,0.002 0.0104,0.0105 0.55172,0.92419 0.78751,1.32923 0.26318,0.45208 0.72769,1.2636 0.72769,1.2713 0,9.2e-4 -0.0202,0.002 -0.045,0.003 l -0.045,0.001 -0.065,-0.11523 z"
       id="path4333"
       inkscape:connector-curvature="0" />
    <path
       style="fill:#c83737;fill-opacity:1"
       d="m 367.89463,428.93846 c -0.45225,-0.67275 -0.84629,-1.25892 -0.87565,-1.30261 l -0.0534,-0.0794 0.0436,1.4e-4 0.0436,1.4e-4 0.13672,0.20391 c 0.0752,0.11215 0.26659,0.39729 0.42532,0.63365 0.40263,0.59955 1.17378,1.75394 1.17665,1.76142 0.002,0.005 -0.003,0.006 -0.0361,0.006 l -0.0385,-1.2e-4 -0.82226,-1.22317 z"
       id="path4335"
       inkscape:connector-curvature="0" />
    <path
       style="fill:#c83737;fill-opacity:1"
       d="m 366.92756,427.50026 c -0.0198,-0.0295 -0.16361,-0.24355 -0.31969,-0.47558 -0.15608,-0.23203 -0.30345,-0.45132 -0.32749,-0.48731 l -0.0437,-0.0654 0.0423,0 0.0423,0 0.0687,0.10254 c 0.0378,0.0564 0.15167,0.22559 0.25311,0.37598 0.10144,0.15039 0.23442,0.3477 0.2955,0.43848 l 0.11107,0.16504 -0.0431,0 -0.0431,0 -0.0359,-0.0537 z"
       id="path4337"
       inkscape:connector-curvature="0" />
    <path
       style="fill:#c83737;fill-opacity:1"
       d="m 367.86788,427.40451 c -0.16797,-0.27601 -0.3991,-0.65203 -0.53689,-0.87346 -0.0219,-0.0352 -0.0371,-0.0629 -0.0339,-0.0617 0.003,0.001 0.007,1.3e-4 0.009,-0.002 0.002,-0.003 0.004,-0.033 0.005,-0.0676 l 0.002,-0.0629 0.0798,0.12928 c 0.10434,0.16908 0.26475,0.43037 0.33357,0.54333 0.0712,0.11681 0.3308,0.54565 0.33078,0.54634 -10e-6,3e-4 -0.0216,9.6e-4 -0.048,0.001 l -0.048,9.3e-4 -0.0933,-0.15328 z"
       id="path4339"
       inkscape:connector-curvature="0" />
    <path
       style="fill:#c83737;fill-opacity:1"
       d="m 335.34276,421.32735 c -0.34117,-0.29385 -0.95692,-0.8242 -1.36835,-1.17855 -0.41142,-0.35434 -0.78023,-0.67206 -0.81958,-0.70604 l -0.0715,-0.0618 0.0605,0.001 0.0605,0.001 1.36602,1.17773 c 0.75131,0.64775 1.37152,1.18233 1.37824,1.18795 l 0.0122,0.0102 0.39844,-0.13418 c 0.21914,-0.0738 0.39888,-0.1342 0.39941,-0.13423 5.4e-4,-4e-5 9.8e-4,0.0207 9.8e-4,0.046 0,0.0257 0.002,0.0478 0.004,0.05 0.003,0.003 -0.0654,0.0275 -0.20605,0.0753 -0.45656,0.15527 -0.58795,0.19965 -0.5911,0.19965 -0.002,0 -0.28242,-0.24043 -0.62358,-0.53429 z"
       id="path4341"
       inkscape:connector-curvature="0" />
    <path
       style="fill:#c83737;fill-opacity:1"
       d="m 336.01738,420.95096 c -0.10635,-0.0859 -0.25042,-0.20224 -0.32016,-0.2585 -0.18752,-0.15129 -0.43865,-0.36119 -0.77164,-0.64493 -0.21911,-0.18671 -0.76703,-0.65842 -0.76957,-0.66253 -0.002,-0.002 0.0196,-0.004 0.0581,-0.004 l 0.0605,0 0.41734,0.36621 c 0.22953,0.20142 0.65869,0.57803 0.95369,0.83692 0.29499,0.25888 0.53859,0.47122 0.54132,0.47185 0.005,0.001 0.09,-0.0272 0.41419,-0.13749 0.0858,-0.0292 0.15685,-0.0531 0.15779,-0.0531 0.003,0 -0.003,0.0562 -0.006,0.0589 -0.002,0.002 -0.52342,0.17797 -0.53797,0.18172 -0.002,5.5e-4 -0.0909,-0.0693 -0.19727,-0.1552 z"
       id="path4343"
       inkscape:connector-curvature="0" />
    <path
       style="fill:#c83737;fill-opacity:1"
       d="m 333.38654,418.71947 c -1.05158,-0.91346 -2.68167,-2.34354 -4.34699,-3.81362 -0.33596,-0.29656 -0.61418,-0.54189 -0.61828,-0.54517 -0.007,-0.005 -0.007,-0.0108 -0.006,-0.0633 l 0.001,-0.0573 2.53515,2.22473 c 1.39434,1.22361 2.59106,2.27381 2.65939,2.3338 l 0.12423,0.10906 -0.0658,0 -0.0658,0 -0.21664,-0.18819 z"
       id="path4345"
       inkscape:connector-curvature="0" />
    <path
       style="fill:#c83737;fill-opacity:1"
       d="m 330.47459,417.13423 -2.05859,-1.7733 -0.001,-0.0536 -0.001,-0.0536 0.009,0.008 c 0.005,0.004 0.66457,0.57308 1.46593,1.26365 0.80137,0.69056 1.75111,1.50906 2.11054,1.81888 l 0.6535,0.56332 -0.0598,-7e-5 -0.0598,-6e-5 -2.05859,-1.7733 0,0 z"
       id="path4347"
       inkscape:connector-curvature="0" />
    <path
       style="fill:#c83737;fill-opacity:1"
       d="m 332.81044,419.14641 c -0.14863,-0.12825 -0.27153,-0.23451 -0.27311,-0.23612 -0.002,-0.002 0.0237,-0.003 0.0561,-0.003 l 0.059,0 0.2727,0.23494 c 0.14999,0.12922 0.27344,0.23556 0.27433,0.23633 9e-4,7.6e-4 -0.0255,0.001 -0.0586,0.001 l -0.0602,-2e-4 -0.27023,-0.2332 z"
       id="path4349"
       inkscape:connector-curvature="0" />
    <path
       style="fill:#c83737;fill-opacity:1"
       d="m 334.09174,419.33119 c -0.0321,-0.0279 -0.15452,-0.134 -0.27203,-0.23571 -0.11751,-0.10171 -0.21365,-0.18565 -0.21365,-0.18652 0,-8.8e-4 0.0289,-0.002 0.0642,-0.002 l 0.0642,0 0.26829,0.23535 c 0.25511,0.22378 0.26765,0.2354 0.2551,0.23624 -0.007,4.9e-4 -0.0345,0.001 -0.0605,0.002 l -0.0473,0.001 -0.0584,-0.0508 z"
       id="path4351"
       inkscape:connector-curvature="0" />
    <path
       style="fill:#c83737;fill-opacity:1"
       d="m 214.87526,430.44961 1.4e-4,-0.11329 0.0819,-0.0438 c 0.76795,-0.41116 2.23165,-1.13692 3.50377,-1.7373 4.06797,-1.91991 6.63248,-3.00937 8.99091,-3.81955 3.28706,-1.12919 6.37462,-1.7452 10.29815,-2.05461 0.72896,-0.0575 1.93136,-0.13525 2.04423,-0.13221 0.0315,8.5e-4 -0.19672,0.039 -0.50723,0.0847 -7.89793,1.16404 -15.26853,3.4397 -22.40418,6.91724 -0.62369,0.30396 -1.93821,0.97081 -1.96797,0.99835 -0.0319,0.0295 -0.0398,0.01 -0.0397,-0.0995 z"
       id="path4353"
       inkscape:connector-curvature="0" />
    <path
       style="fill:#c83737;fill-opacity:1"
       d="m 281.74082,428.59804 c -0.25361,-0.1173 -0.88944,-0.39836 -1.3203,-0.58362 -5.60716,-2.41097 -11.4969,-4.1391 -17.50642,-5.13661 -0.76645,-0.12722 -1.36079,-0.21686 -2.40858,-0.36326 -0.18483,-0.0258 1.23721,0.0446 2.19313,0.10855 5.70736,0.38205 9.46117,1.20246 14.16423,3.09564 1.34115,0.53987 3.28166,1.39819 4.88622,2.16124 l 0.15192,0.0722 0,0.35973 c 0,0.19785 -0.001,0.35926 -0.003,0.35867 -0.002,-5.8e-4 -0.0724,-0.0333 -0.15744,-0.0726 z"
       id="path4355"
       inkscape:connector-curvature="0" />
    <path
       style="fill:#c83737;fill-opacity:1"
       d="m 306.77446,446.79208 c -1.21286,-1.33141 -2.81815,-2.95998 -4.15546,-4.21572 -5.11513,-4.80311 -10.78056,-8.83392 -16.98404,-12.08372 -1.03907,-0.54434 -2.49272,-1.25811 -3.42519,-1.68185 l -0.30801,-0.13997 -5.8e-4,-0.35546 c -3.3e-4,-0.19551 0.003,-0.35547 0.007,-0.35547 0.004,0 0.29425,0.13983 0.64454,0.31074 5.74953,2.80521 11.41256,6.53365 16.59001,10.92257 2.80756,2.37997 5.37808,4.85671 7.9513,7.66122 l 0.15411,0.16797 -0.13196,0 -0.13197,0 -0.2098,-0.23031 z"
       id="path4357"
       inkscape:connector-curvature="0" />
    <path
       style="fill:#c83737;fill-opacity:1"
       d="m 326.32043,490.17679 c -0.0114,-0.12497 -0.0563,-0.52956 -0.0999,-0.8991 -0.90109,-7.64293 -2.95282,-15.10713 -6.06877,-22.07812 -1.04587,-2.33982 -2.37114,-4.9341 -3.63534,-7.11632 -0.25611,-0.44211 -0.46566,-0.81189 -0.46566,-0.82174 0,-0.01 0.0936,-0.0138 0.20804,-0.009 l 0.20805,0.009 0.44074,0.73437 c 1.48615,2.47624 2.81824,5.04404 4.60102,8.86914 3.57761,7.67603 4.51032,11.63808 4.82586,20.49968 0.0346,0.97297 0.0292,1.28678 -0.014,0.81153 z"
       id="path4359"
       inkscape:connector-curvature="0" />
    <path
       style="fill:#c83737;fill-opacity:1"
       d="m 315.6949,458.69632 c -2.24764,-3.71775 -5.08309,-7.57794 -7.94987,-10.823 -0.31637,-0.35812 -0.60866,-0.6921 -0.64954,-0.74219 l -0.0743,-0.0911 0.11569,0 c 0.12735,0 0.0992,-0.0263 0.72033,0.67187 3.037,3.41349 5.89102,7.21166 8.25617,10.98744 l 0.34449,0.54994 -0.21616,-0.003 -0.21616,-0.003 -0.33063,-0.54687 z"
       id="path4361"
       inkscape:connector-curvature="0" />
    <path
       style="fill:#c83737;fill-opacity:1"
       d="m 276.97842,569.98993 10e-6,-0.11878 0.15743,-0.0596 c 3.18196,-1.20417 6.06477,-2.50597 8.96312,-4.04751 4.42792,-2.35508 8.64215,-5.15996 12.52904,-8.33901 0.81429,-0.666 1.83937,-1.54136 2.49975,-2.13464 0.14268,-0.12818 0.16133,-0.14145 0.19887,-0.1414 l 0.0414,6e-5 -0.0292,0.0248 c -0.0161,0.0136 -0.20253,0.18144 -0.41432,0.37288 -4.27424,3.86361 -8.87459,7.23136 -13.42787,9.83007 -3.07741,1.75638 -6.04731,3.12646 -9.43546,4.35277 -0.37615,0.13614 -1.06653,0.3791 -1.07724,0.3791 -0.003,0 -0.006,-0.0534 -0.005,-0.11877 z"
       id="path4363"
       inkscape:connector-curvature="0" />
    <path
       style="fill:#c83737;fill-opacity:1"
       d="m 247.25126,574.65365 c -7.20577,-0.0799 -14.13734,-1.06402 -19.84375,-2.81739 -3.57258,-1.09772 -8.13212,-3.04478 -12.08594,-5.16106 l -0.42187,-0.22581 -0.004,-0.25228 -0.004,-0.25228 0.34804,0.18102 c 0.49224,0.25602 1.72123,0.86823 2.23867,1.11518 8.27756,3.95046 17.10901,6.35229 26.25781,7.14115 1.53049,0.13197 3.19869,0.2224 4.88282,0.2647 l 0.5,0.0126 -0.77344,-0.001 c -0.42539,-6.1e-4 -0.91758,-0.003 -1.09375,-0.005 l 0,0 z"
       id="path4365"
       inkscape:connector-curvature="0" />
    <path
       style="fill:#c83737;fill-opacity:1"
       d="m 193.97237,550.25726 c -0.9086,-0.9796 -1.62383,-1.78046 -2.37461,-2.65891 -4.75043,-5.5582 -8.62216,-11.595 -11.51562,-17.9551 -0.14515,-0.31906 -0.26391,-0.58449 -0.26391,-0.58985 0,-0.005 0.1287,-0.01 0.28599,-0.01 l 0.28599,0 0.20928,0.46485 c 2.56183,5.69029 5.81053,11.04482 9.6862,15.96484 1.29247,1.64075 2.71436,3.29994 4.10744,4.79297 l 0.30252,0.32422 -0.20824,-0.001 -0.20824,-0.001 -0.3068,-0.33078 0,0 z"
       id="path4367"
       inkscape:connector-curvature="0" />
    <path
       style="fill:#c83737;fill-opacity:1"
       d="m 208.24569,562.42478 c -2.12347,-1.43902 -3.94113,-2.78021 -5.76181,-4.25146 -2.86496,-2.31511 -5.33506,-4.59036 -7.98664,-7.35661 l -0.21399,-0.22324 0.20867,0 0.20866,0 0.15362,0.16297 c 0.78615,0.83402 2.12231,2.16883 3.01732,3.01429 3.41269,3.22372 7.1057,6.12669 11.00768,8.65281 0.19491,0.12618 0.3633,0.23534 0.37419,0.24258 0.0156,0.0103 -0.0502,0.0132 -0.30612,0.0132 l -0.32593,0 -0.37565,-0.25456 0,3e-5 z"
       id="path4369"
       inkscape:connector-curvature="0" />
    <path
       style="fill:#c83737;fill-opacity:1"
       d="m 214.78972,566.39466 c -0.058,-0.0322 -0.21797,-0.12021 -0.35547,-0.19567 -1.86607,-1.02407 -4.02521,-2.32936 -5.66793,-3.42649 l -0.13669,-0.0913 0.30075,-5.5e-4 c 0.16541,-3e-4 0.30757,-0.003 0.31591,-0.006 0.0116,-0.005 0.0508,0.0168 0.16796,0.0916 1.64366,1.0495 3.52287,2.1417 5.32078,3.09242 l 0.16016,0.0847 9e-5,0.25586 c 6e-5,0.14072 6e-5,0.25552 0,0.2551 -5e-5,-4.1e-4 -0.0476,-0.0271 -0.10556,-0.0592 l 0,0 z"
       id="path4371"
       inkscape:connector-curvature="0" />
    <path
       style="fill:#c83737;fill-opacity:1"
       d="m 179.79015,528.99863 c -0.0116,-0.0266 -0.0842,-0.19249 -0.16141,-0.36871 -1.13697,-2.59647 -2.18258,-5.48867 -2.94983,-8.15935 -0.0585,-0.20357 -0.10842,-0.37634 -0.11097,-0.38394 -0.004,-0.0108 0.0527,-0.0138 0.25781,-0.0138 l 0.26245,0 0.0963,0.31765 c 0.87446,2.88407 1.97651,5.86309 3.1559,8.5309 0.0252,0.057 0.0444,0.10494 0.0426,0.10654 -0.002,0.002 -0.13111,0.007 -0.28749,0.011 l -0.28431,0.008 -0.0211,-0.0483 z"
       id="path4373"
       inkscape:connector-curvature="0" />
    <path
       style="fill:#c83737;fill-opacity:1"
       d="m 176.56197,520.0699 c -0.007,-0.0216 -0.0868,-0.31296 -0.13517,-0.49219 -0.46885,-1.73855 -0.86471,-3.53126 -1.20329,-5.44922 -0.0668,-0.3781 -0.18832,-1.10881 -0.18832,-1.13189 0,-0.0168 7.7e-4,-0.0169 0.15336,-0.0148 l 0.15336,0.002 0.0613,0.30469 c 0.45279,2.25127 1.00361,4.4791 1.6303,6.59375 l 0.0532,0.17969 -0.0824,0.002 c -0.0453,0.001 -0.16284,0.005 -0.26115,0.008 -0.11722,0.004 -0.17958,0.003 -0.1812,-0.002 z"
       id="path4375"
       inkscape:connector-curvature="0" />
    <path
       style="fill:#c83737;fill-opacity:1"
       d="m 175.02738,512.97097 c 0,-0.005 -0.0263,-0.1799 -0.0583,-0.38867 -0.21339,-1.3884 -0.38732,-2.77232 -0.53138,-4.22827 -0.0194,-0.19607 -0.0353,-0.36042 -0.0353,-0.36523 0,-0.006 0.0226,-0.009 0.0664,-0.009 0.0365,0 0.0664,0.003 0.0664,0.006 0,0.038 0.13943,1.04745 0.21559,1.56074 0.15963,1.07582 0.41246,2.5465 0.58594,3.40821 l 0.005,0.0254 -0.15723,0 c -0.11428,0 -0.15722,-0.002 -0.15722,-0.009 z"
       id="path4377"
       inkscape:connector-curvature="0" />
    <path
       style="fill:#c83737;fill-opacity:1"
       d="m 174.39847,507.96474 c 0,-0.008 -0.0104,-0.12884 -0.0232,-0.26758 -0.0522,-0.56765 -0.1172,-1.39066 -0.16005,-2.0257 -0.0473,-0.70064 -0.107,-1.77699 -0.10471,-1.88672 0.001,-0.0569 0.001,-0.0582 0.0303,0.32813 0.0884,1.1679 0.2235,2.51599 0.36326,3.62603 0.0149,0.11873 0.0272,0.22156 0.0272,0.22852 0,0.0106 -0.0104,0.0126 -0.0664,0.0126 -0.0608,0 -0.0664,-0.001 -0.0664,-0.0153 z"
       id="path4379"
       inkscape:connector-curvature="0" />
    <path
       style="fill:#c83737;fill-opacity:1"
       d="m 175.05565,485.03781 c -9.6e-4,-0.017 0.0708,-0.49634 0.14025,-0.93666 0.30437,-1.93029 0.68694,-3.92189 1.10551,-5.7551 0.0448,-0.19616 0.0814,-0.35875 0.0814,-0.36132 0,-0.003 0.0593,-0.005 0.13177,-0.005 l 0.13176,0 -0.0148,0.0527 c -0.008,0.029 -0.0532,0.19512 -0.10001,0.36914 -0.55259,2.05271 -1.02375,4.15254 -1.39799,6.23047 -0.0721,0.40026 -0.0768,0.42478 -0.0779,0.40541 z"
       id="path4381"
       inkscape:connector-curvature="0" />
    <path
       style="fill:#c83737;fill-opacity:1"
       d="m 176.39849,477.92342 c 0.008,-0.0312 0.0482,-0.20079 0.0899,-0.37696 0.37657,-1.58992 0.85376,-3.32729 1.32934,-4.83984 0.0453,-0.14395 0.0882,-0.28106 0.0955,-0.30469 l 0.0132,-0.043 0.25163,-0.002 c 0.1384,-0.001 0.25164,-3.9e-4 0.25164,0.002 0,0.002 -0.0442,0.12777 -0.0983,0.2794 -0.6075,1.7046 -1.17044,3.48211 -1.64423,5.19171 l -0.0417,0.15039 -0.13056,0 -0.13056,0 0.014,-0.0566 z"
       id="path4383"
       inkscape:connector-curvature="0" />
    <path
       style="fill:#c83737;fill-opacity:1"
       d="m 177.93406,472.33748 c 0.069,-0.22493 0.35624,-1.08427 0.51765,-1.54883 0.37373,-1.07567 0.85086,-2.31872 1.26333,-3.29134 l 0.0603,-0.14225 0.33108,0 c 0.1821,0 0.33108,0.002 0.33108,0.004 0,0.002 -0.0664,0.15614 -0.14749,0.3418 -0.62125,1.42188 -1.16948,2.78352 -1.69449,4.20866 -0.0689,0.18692 -0.13345,0.36358 -0.14353,0.39258 l -0.0183,0.0527 -0.25251,0 -0.2525,0 0.005,-0.0176 z"
       id="path4385"
       inkscape:connector-curvature="0" />
    <path
       style="fill:#c83737;fill-opacity:1"
       d="m 179.8989,467.12791 c 0.53664,-1.28268 1.79132,-3.78449 2.79612,-5.57545 2.81506,-5.01755 6.12605,-9.62493 10.08745,-14.03713 1.23288,-1.37318 4.41473,-4.54751 5.77641,-5.76277 4.87006,-4.34639 9.90126,-7.90365 15.48174,-10.94623 0.41965,-0.2288 0.77824,-0.416 0.79688,-0.416 0.0186,0 0.0339,0.0352 0.0338,0.0781 -3e-5,0.043 -0.23206,0.20215 -0.51562,0.35373 -12.06291,6.44827 -22.27359,16.13562 -29.45271,27.94315 -1.30831,2.15177 -3.06648,5.46313 -4.08169,7.6875 l -0.3851,0.84375 -0.3118,0.0188 -0.31181,0.0188 0.0863,-0.20632 z"
       id="path4387"
       inkscape:connector-curvature="0" />
    <path
       style="fill:#c83737;fill-opacity:1"
       d="m 130.18593,454.43575 c -4.09063,-3.62639 -7.43373,-6.6116 -7.42911,-6.6338 0.005,-0.0222 0.17105,-0.44622 0.36986,-0.94226 1.90105,-4.74312 4.39163,-9.85932 7.49771,-15.40189 0.97538,-1.74049 2.32977,-4.07812 2.3628,-4.07812 0.053,0 21.64389,4.47321 21.69691,4.49517 0.0759,0.0314 -0.31754,0.11294 -0.79505,0.16474 -0.44937,0.0488 -1.46043,0.0174 -2.04687,-0.0634 -0.99659,-0.13736 -1.5239,-0.2436 -3.89063,-0.78386 -2.85517,-0.65176 -4.41121,-0.97321 -5.96026,-1.2313 -2.03915,-0.33974 -3.69268,-0.47376 -4.88349,-0.39581 -2.12029,0.13879 -3.54326,0.72813 -4.87082,2.01731 -1.16198,1.12839 -2.17752,2.67396 -3.57297,5.43777 -0.68427,1.35525 -4.99609,10.24658 -4.98678,10.28313 0.005,0.0188 1.90686,1.74866 4.22683,3.84424 4.93164,4.45462 5.20221,4.70312 6.30915,5.79451 1.24195,1.22449 2.02532,2.09672 2.70838,3.01562 0.34029,0.45778 0.73387,1.04127 0.71459,1.0594 -0.007,0.007 -3.35963,-2.95506 -7.45025,-6.58145 z"
       id="path4389"
       inkscape:connector-curvature="0" />
    <path
       style="fill:#c83737;fill-opacity:1"
       d="m 157.07224,430.67839 c 0.13456,-0.15525 6.79729,-7.75371 7.70193,-8.78359 2.36131,-2.68824 7.87341,-8.97961 7.92556,-9.04603 0.05,-0.0636 -0.25713,-1.00353 -2.17657,-6.66157 -1.22911,-3.62311 -2.23474,-6.59761 -2.23474,-6.61001 0,-0.0124 0.16724,-0.0225 0.37166,-0.0225 l 0.37165,0 0.10925,0.3204 c 0.0601,0.17623 1.07613,3.12982 2.25789,6.56355 1.18176,3.43373 2.14866,6.2642 2.14866,6.28995 0,0.0414 -9.0578,10.42226 -10.89006,12.48081 -2.15857,2.42517 -3.97754,4.28134 -4.97211,5.07381 -0.54818,0.43679 -0.77697,0.58427 -0.61312,0.39522 z"
       id="path4391"
       inkscape:connector-curvature="0" />
    <path
       style="fill:#c83737;fill-opacity:1"
       d="m 245.62756,363.32693 c -3.40599,-0.18428 -6.2213,-0.33534 -6.25624,-0.33568 l -0.0635,-6.3e-4 0,-0.045 0,-0.045 0.0967,0.007 c 0.0532,0.004 0.29307,0.0165 0.5331,0.0285 0.80362,0.0401 2.8247,0.14611 3.46924,0.1819 2.11273,0.1173 4.22693,0.24171 5.35302,0.315 0.85537,0.0557 1.38285,0.091 1.81748,0.12166 0.56566,0.0399 1.34283,0.098 1.38107,0.10312 0.12334,0.0167 -0.89953,-0.0367 -6.33081,-0.33061 z"
       id="path4393"
       inkscape:connector-curvature="0" />
    <path
       style="fill:#c83737;fill-opacity:1"
       d="m 239.30779,361.78742 c 0,-0.0325 0.005,-0.0453 0.0162,-0.0453 0.009,0 0.23142,-0.0173 0.49442,-0.0385 3.62425,-0.29155 7.77243,-0.46533 11.84713,-0.4963 l 0.69605,-0.005 -1.30925,0.0422 c -0.72009,0.0232 -1.48575,0.0479 -1.70147,0.0548 -1.54063,0.0495 -3.07264,0.10834 -4.0493,0.15563 -0.12153,0.006 -0.33035,0.0159 -0.46403,0.0222 -1.3253,0.063 -3.22614,0.17739 -4.31446,0.25975 -0.82827,0.0627 -1.09614,0.0835 -1.15181,0.0893 l -0.0635,0.007 0,-0.0453 z"
       id="path4395"
       inkscape:connector-curvature="0" />
    <path
       style="fill:#808080;fill-opacity:1"
       d="m 482.37377,486.89915 c -0.84939,-2.03289 -2.35896,-5.77458 -3.35459,-8.31486 l -1.81024,-4.6187 -7.37148,-1.18724 c -13.04303,-2.10069 -12.87027,-2.1499 -18.43563,5.25111 -5.60172,7.44937 -5.75944,7.47904 -15.90555,2.99195 -5.49807,-2.43151 -5.75121,-2.70128 -5.18609,-5.52684 0.32676,-1.6338 0.85235,-5.7962 1.16798,-9.24977 l 0.57388,-6.27921 -4.74777,-3.5 c -2.61127,-1.925 -6.21154,-4.57078 -8.00059,-5.87951 l -3.25282,-2.37951 -8.15882,3.28882 -8.15882,3.28883 -3.32688,-3.90932 c -1.82978,-2.15012 -4.09122,-5.30028 -5.02542,-7.00035 l -1.69854,-3.09103 5.1418,-6.54281 c 2.82798,-3.59855 5.14421,-6.93258 5.14717,-7.40897 0.008,-1.2473 -6.15806,-16.645 -7.2223,-18.03608 -0.49228,-0.64346 -4.18178,-1.47792 -8.1989,-1.85435 -4.01711,-0.37643 -7.79063,-0.98528 -8.3856,-1.35299 -0.97298,-0.60134 -3.17208,-11.129 -3.19102,-15.2763 -0.005,-1.12884 2.6088,-2.74542 8.2373,-5.09429 l 8.24486,-3.44071 1.16769,-8.40571 c 0.64223,-4.62315 1.20704,-9.16569 1.25514,-10.09454 0.0504,-0.97313 -2.86028,-3.93961 -6.86833,-7 -7.76607,-5.92989 -7.62758,-5.22972 -3.04844,-15.41217 l 2.74367,-6.10099 8.88027,1.22812 c 4.88416,0.67547 9.13706,0.94592 9.4509,0.601 1.22136,-1.34234 10.63085,-13.68984 11.25161,-14.76482 0.36134,-0.62573 -0.68835,-4.40012 -2.33263,-8.38754 -1.64428,-3.98742 -2.9896,-7.84023 -2.9896,-8.56179 0,-0.72157 2.92025,-3.39578 6.48944,-5.9427 l 6.48943,-4.63076 7.07062,5.49388 7.07062,5.49389 9.83845,-4.05367 9.83844,-4.05368 0.67731,-6.60997 c 1.1202,-10.93223 1.12595,-10.94269 6.37236,-11.59498 2.55933,-0.31821 6.30171,-0.78832 8.3164,-1.0447 l 3.66306,-0.46613 3.32947,8.44847 3.32946,8.44847 7.00747,1.08383 c 3.85411,0.59611 8.43328,1.30687 10.17593,1.57946 2.92429,0.45744 3.53398,0.0117 7.91181,-5.78438 2.60884,-3.45401 5.09244,-6.67942 5.51911,-7.16759 0.4357,-0.4985 4.34188,0.54994 8.91102,2.39176 7.24309,2.9197 8.07488,3.51989 7.58472,5.47284 -0.3028,1.20644 -0.84098,5.31855 -1.19596,9.13804 l -0.64543,6.94453 7.90341,6.11401 7.90341,6.11401 8.21737,-3.31498 8.21737,-3.31498 3.36273,4.17117 c 1.8495,2.29414 4.14044,5.39055 5.09098,6.8809 l 1.72825,2.70973 -5.5195,7.05417 -5.51951,7.05416 3.85253,9.23611 3.85253,9.2361 8.96531,1.40695 8.96531,1.40694 1.10015,8.52261 c 0.60509,4.68743 0.99346,8.59235 0.86305,8.6776 -0.13042,0.0853 -3.90247,1.61103 -8.38234,3.39062 l -8.14522,3.23561 -1.15788,8.17983 c -0.63683,4.49891 -1.36895,8.90322 -1.62694,9.78736 -0.31936,1.09446 1.77212,3.31135 6.5531,6.94604 3.86219,2.93619 7.02216,5.73159 7.02216,6.212 0,0.48041 -1.38444,4.19905 -3.07654,8.26365 -2.88099,6.92044 -3.24646,7.35925 -5.75,6.9036 -1.4704,-0.26762 -5.51427,-0.85387 -8.98637,-1.30279 l -6.31291,-0.81621 -6.28482,8.02751 -6.28482,8.02751 3.26652,8.06558 3.26651,8.06559 -2.1111,2.26916 c -1.16111,1.24805 -4.24702,3.63978 -6.85758,5.31497 l -4.74648,3.04581 -6.44505,-5.06497 c -3.54478,-2.78573 -7.08545,-5.06497 -7.86816,-5.06497 -0.78271,0 -5.21641,1.53027 -9.85268,3.40059 -9.35941,3.77569 -8.91528,3.10288 -10.41127,15.77204 -0.74939,6.34644 0.53528,5.61093 -12.81918,7.33925 -4.75734,0.6157 -4.77929,0.605 -6.31828,-3.07832 z m 15.59221,-44.29999 c 18.85697,-6.03603 34.23498,-21.54821 40.28208,-40.63357 3.12226,-9.85421 3.12794,-26.11147 0.0126,-36 -11.37788,-36.11472 -51.64127,-53.37675 -86.09523,-36.9114 -10.63397,5.08192 -22.44331,16.9165 -27.61977,27.67882 -9.20069,19.12901 -8.22392,41.45297 2.59954,59.41181 7.72263,12.81382 24.01451,24.49009 38.82078,27.8226 8.7799,1.97613 23.521,1.34582 32,-1.36826 z"
       id="path4397"
       inkscape:connector-curvature="0" />
  </g>
</svg>
